<?xml version="1.0" encoding="UTF-8"?>
<svg version="1.1" xmlns="http://www.w3.org/2000/svg" width="512" height="512">
<path d="M0 0 C1 1 1 1 1.09765625 3.28515625 C1.06510417 5.85677083 1.03255208 8.42838542 1 11 C4.96 11 8.92 11 13 11 C13.66 12.65 14.32 14.3 15 16 C13.85546875 17.48828125 13.85546875 17.48828125 12 19 C8.29631297 19.40199208 4.73655831 19.13187853 1 19 C1 23.62 1 28.24 1 33 C4.96 33 8.92 33 13 33 C13.66 34.65 14.32 36.3 15 38 C13.85546875 39.48828125 13.85546875 39.48828125 12 41 C9.30078125 41.29296875 9.30078125 41.29296875 6.3125 41.1875 C5.31863281 41.16042969 4.32476562 41.13335937 3.30078125 41.10546875 C2.16189453 41.05326172 2.16189453 41.05326172 1 41 C1 44.3 1 47.6 1 51 C-5.10126602 54.05063301 -15.14470318 51.21973372 -21.375 49.3125 C-29.22032701 46.41881747 -35.20167871 41.83397275 -40 35 C-40.38781499 33.34516212 -40.73113665 31.67827334 -41 30 C-74.95444216 30.03601651 -108.90877594 30.09298293 -142.86312981 30.17792095 C-146.87465454 30.18793803 -150.88617967 30.19778222 -154.89770508 30.20751953 C-156.09560409 30.21043159 -156.09560409 30.21043159 -157.31770309 30.21340248 C-170.23685412 30.24439662 -183.1559874 30.2613959 -196.07516859 30.27319422 C-209.33822779 30.2856192 -222.60119406 30.31315095 -235.86419457 30.35461307 C-244.0436671 30.37970999 -252.22298544 30.39312007 -260.40249702 30.39142957 C-266.01673357 30.39139974 -271.63081344 30.40608597 -277.2449889 30.43216428 C-280.48081879 30.44676601 -283.71626443 30.45286495 -286.95212936 30.44580269 C-290.46938852 30.43915 -293.98571827 30.45711576 -297.50288391 30.48101807 C-298.5136168 30.47325765 -299.52434969 30.46549723 -300.56571084 30.45750165 C-312.35553891 30.59875958 -322.53283236 35.01231495 -331.16015625 43 C-337.29669758 49.4232956 -340.95362955 56.57877769 -343.06298828 65.17944336 C-343.37220215 66.44022705 -343.68141602 67.70101074 -344 69 C-342.09323486 68.9685791 -342.09323486 68.9685791 -340.14794922 68.93652344 C-335.41808397 68.86395744 -330.68826765 68.81813975 -325.95800781 68.78027344 C-323.9133272 68.7601958 -321.86870373 68.73292775 -319.82421875 68.69824219 C-316.88006463 68.64955481 -313.93667166 68.62699256 -310.9921875 68.609375 C-310.0825827 68.58872986 -309.17297791 68.56808472 -308.23580933 68.54681396 C-302.5141298 68.54480492 -299.37749815 69.22832024 -295 73 C-293.74725277 75.50549445 -293.87970376 77.19735632 -293.88647461 80.00048828 C-293.88658791 81.56188034 -293.88658791 81.56188034 -293.88670349 83.15481567 C-293.89186478 84.28192963 -293.89702606 85.40904358 -293.90234375 86.5703125 C-293.9037587 87.72167694 -293.90517365 88.87304138 -293.90663147 90.05929565 C-293.91224284 93.74788986 -293.9247973 97.43642405 -293.9375 101.125 C-293.94251353 103.62109288 -293.94707669 106.1171867 -293.95117188 108.61328125 C-293.9613664 114.7422294 -293.98093968 120.87104727 -294 127 C-283.44 127 -272.88 127 -262 127 C-262.03480469 124.50566406 -262.06960938 122.01132813 -262.10546875 119.44140625 C-262.12893187 116.99879091 -262.14710984 114.55618861 -262.16479492 112.11352539 C-262.17978874 110.42889698 -262.20019073 108.74430697 -262.22631836 107.05981445 C-262.56142228 84.88381941 -262.56142228 84.88381941 -254.80859375 76.5703125 C-248.45366313 71.05264056 -241.57422766 68.61923589 -233.171875 68.79296875 C-225.25105904 69.54801056 -219.25406729 73.05875225 -214 79 C-214 79.66 -214 80.32 -214 81 C-213.27296875 80.31164062 -213.27296875 80.31164062 -212.53125 79.609375 C-205.42831934 73.10746155 -198.26446512 68.52717111 -188.33984375 68.73046875 C-179.04423503 69.80124839 -172.93693937 73.99134952 -167 81 C-166.6596875 80.54109375 -166.319375 80.0821875 -165.96875 79.609375 C-161.36540256 73.78173302 -156.30279316 70.52081744 -149 69 C-139.65049393 68.36613518 -132.89469808 70.85591995 -125.53125 76.59765625 C-124 78 -124 78 -123 80 C-122.34 80 -121.68 80 -121 80 C-120.2265625 78.9171875 -120.2265625 78.9171875 -119.4375 77.8125 C-114.08773935 71.63969924 -107.32407297 69.37276491 -99.375 68.6875 C-91.91432519 68.82853355 -85.08999153 71.48319166 -79.8125 76.75 C-78.85583456 77.81644672 -77.91042617 78.89381667 -77 80 C-76.5875 79.61328125 -76.175 79.2265625 -75.75 78.828125 C-68.82622824 72.58436654 -61.72879515 68.6124064 -52.20703125 68.7890625 C-43.08039934 69.66134236 -36.23351388 74.57527403 -30 81 C-29.75636719 80.40445313 -29.51273437 79.80890625 -29.26171875 79.1953125 C-26.42816505 74.26510452 -20.57822081 71.60913786 -15.4375 69.625 C-8.05505392 68.28273708 -1.76119551 68.62526117 5 72 C7.91565546 74.09577897 10.61764121 76.30605205 13 79 C13 79.66 13 80.32 13 81 C13.72703125 80.31164062 13.72703125 80.31164062 14.46875 79.609375 C21.57692584 73.10266019 28.72909677 68.54135442 38.65625 68.7265625 C46.10760438 69.59588718 52.26726676 72.45773855 57.46484375 77.828125 C61.99439642 84.2363471 63.58957547 89.48957345 63.390625 97.3125 C63.38496521 98.16682617 63.37930542 99.02115234 63.37347412 99.90136719 C63.3512739 102.60150753 63.3011112 105.30026807 63.25 108 C63.22991374 109.84242861 63.21166671 111.68487824 63.1953125 113.52734375 C63.15146318 118.01875215 63.08255252 122.50914302 63 127 C63.8768042 126.98694824 64.7536084 126.97389648 65.65698242 126.96044922 C66.81560791 126.95029785 67.9742334 126.94014648 69.16796875 126.9296875 C70.31289795 126.91663574 71.45782715 126.90358398 72.63745117 126.89013672 C80.91319104 127.16052683 88.22299559 129.97961847 94 136 C99.80585714 143.54337643 100.06084354 151.79591938 99 161 C97.33936778 168.16856767 93.08554371 172.99826257 87 177 C80 180 80 180 63 180 C63 222.57 63 265.14 63 309 C68.61 309 74.22 309 80 309 C87.79174257 311.21247011 92.35047074 315.38807949 97 322 C100.58559945 328.9134107 100.19506996 338.64772195 98.16015625 346.05859375 C95.06759004 352.89972507 90.5039938 356.97166033 83.71875 360.02734375 C78.81966363 361.75315827 74.3510527 362.12939769 69.16796875 362.0703125 C67.43003052 362.05508545 67.43003052 362.05508545 65.65698242 362.03955078 C64.78017822 362.02649902 63.90337402 362.01344727 63 362 C63.02094727 363.13953125 63.04189453 364.2790625 63.06347656 365.453125 C63.13626614 369.70966869 63.18194042 373.96615814 63.21972656 378.22314453 C63.23975373 380.06015293 63.26698382 381.89709829 63.30175781 383.73388672 C63.35067065 386.38525002 63.37305763 389.03576541 63.390625 391.6875 C63.41127014 392.49928711 63.43191528 393.31107422 63.45318604 394.14746094 C63.4558263 400.96567874 61.44593776 405.99159976 57.1484375 411.27734375 C56.56320312 411.82519531 55.97796875 412.37304688 55.375 412.9375 C54.78460938 413.50339844 54.19421875 414.06929688 53.5859375 414.65234375 C52 416 52 416 50 417 C49.67 425.91 49.34 434.82 49 444 C50.98 444.66 52.96 445.32 55 446 C63.31015482 451.04886253 67.99332841 457.15098236 70.8125 466.375 C73.44159494 477.37489149 72.13850487 487.64509745 66.52734375 497.6171875 C61.42671169 504.77977721 53.90442383 510.04918526 45.1875 511.75390625 C33.01519599 513.12329045 23.16276971 511.43748653 13.26171875 504.0078125 C5.87609008 497.45131312 2.91834196 489.15399725 1.68359375 479.53515625 C1.18453814 469.60233971 4.42083175 459.61990474 10.8425293 452.03344727 C13.18309961 449.82742597 15.24107311 448.92033344 18.171875 447.64453125 C21.59732795 445.65038117 22.78192131 444.7490196 23.90380859 440.89575195 C24.21020709 437.10477626 24.23176372 433.42655098 24.125 429.625 C24.12886719 427.66240234 24.12886719 427.66240234 24.1328125 425.66015625 C24.1328125 422.43719142 24.08707014 419.22159536 24 416 C23.06269043 415.55164795 23.06269043 415.55164795 22.10644531 415.09423828 C18.75504012 413.35327884 16.59952443 410.71768463 14 408 C13.6596875 408.45890625 13.319375 408.9178125 12.96875 409.390625 C8.36540256 415.21826698 3.30279316 418.47918256 -4 420 C-13.31541189 420.63155335 -20.07367602 418.13434208 -27.46875 412.5 C-29 411 -29 411 -30 408 C-30.61875 408.70125 -31.2375 409.4025 -31.875 410.125 C-38.05500421 416.30500421 -45.10579949 419.67371997 -53.75 420.25 C-63.45405116 420.0315223 -69.28053803 415.68769147 -76 409 C-76.4125 409.38671875 -76.825 409.7734375 -77.25 410.171875 C-84.17377176 416.41563346 -91.27120485 420.3875936 -100.79296875 420.2109375 C-109.91960066 419.33865764 -116.76648612 414.42472597 -123 408 C-123.24363281 408.59554688 -123.48726563 409.19109375 -123.73828125 409.8046875 C-126.57183495 414.73489548 -132.42177919 417.39086214 -137.5625 419.375 C-144.94494608 420.71726292 -151.23880449 420.37473883 -158 417 C-160.91565546 414.90422103 -163.61764121 412.69394795 -166 410 C-166 409.34 -166 408.68 -166 408 C-166.4846875 408.45890625 -166.969375 408.9178125 -167.46875 409.390625 C-174.57168066 415.89253845 -181.73553488 420.47282889 -191.66015625 420.26953125 C-200.95576497 419.19875161 -207.06306063 415.00865048 -213 408 C-213.3403125 408.45890625 -213.680625 408.9178125 -214.03125 409.390625 C-218.63459744 415.21826698 -223.69720684 418.47918256 -231 420 C-239.90709521 420.60387086 -247.18303743 418.4204791 -254.20703125 412.8125 C-260.01473573 406.94153076 -262.11414243 400.12676673 -262.11329651 392.05804443 C-262.10555458 390.90782806 -262.10555458 390.90782806 -262.09765625 389.734375 C-262.0962413 388.94097717 -262.09482635 388.14757935 -262.09336853 387.33013916 C-262.08778415 384.80338728 -262.07523454 382.27672496 -262.0625 379.75 C-262.05748298 378.03385545 -262.05292043 376.31770951 -262.04882812 374.6015625 C-262.03867198 370.40097965 -262.01909359 366.20058973 -262 362 C-272.56 362 -283.12 362 -294 362 C-293.94199219 365.69574219 -293.88398438 369.39148438 -293.82421875 373.19921875 C-293.78522071 376.78017023 -293.75486301 380.36109802 -293.7253418 383.94213867 C-293.70020329 386.43020218 -293.66608753 388.91819188 -293.62280273 391.40600586 C-293.5621257 394.98309541 -293.53378266 398.55920835 -293.51171875 402.13671875 C-293.48591232 403.24834885 -293.4601059 404.35997894 -293.43351746 405.5052948 C-293.43070787 413.24766539 -293.43070787 413.24766539 -296.40551758 417.17895508 C-300.13418491 419.79607464 -301.92509589 420.12144686 -306.4453125 420.09765625 C-307.41484863 420.09515869 -308.38438477 420.09266113 -309.38330078 420.09008789 C-310.61806152 420.08098389 -311.85282227 420.07187988 -313.125 420.0625 C-317.04375 420.041875 -320.9625 420.02125 -325 420 C-324.505 431.88 -324.505 431.88 -324 444 C-321.36 445.32 -318.72 446.64 -316 448 C-309.3199255 452.90930521 -304.45744306 460.81476424 -303 469 C-302.15838185 481.37592593 -302.88552616 491.41022901 -311.0625 501.375 C-317.0585037 507.61918266 -324.9838152 511.54128796 -333.6640625 512.203125 C-344.98746179 512.38238726 -354.36825881 509.95364905 -362.91015625 502.28515625 C-370.4435441 494.46386822 -372.63883234 485.58144816 -372.46630859 474.91748047 C-371.98265301 464.50276351 -368.51770906 457.8435208 -361.609375 450.19140625 C-359 448 -359 448 -351 444 C-350.67 435.75 -350.34 427.5 -350 419 C-352.97 418.34 -355.94 417.68 -359 417 C-368.41423665 412.30664518 -376.43302972 404.01910217 -380.06653786 394.08366776 C-381.49782307 388.85956581 -381.28250936 383.56320533 -381.26742554 378.18475342 C-381.27195665 376.99821993 -381.27648776 375.81168644 -381.28115618 374.5891974 C-381.29160416 371.3083493 -381.29312983 368.02763954 -381.29076743 364.74678016 C-381.29035838 361.20335821 -381.30140681 357.65996865 -381.31088257 354.11656189 C-381.32747476 347.17886705 -381.33299132 340.2412062 -381.33410732 333.30349317 C-381.33505868 327.66206356 -381.33917336 322.02064513 -381.34550858 316.37921906 C-381.36311645 300.37307194 -381.37234821 284.36695162 -381.37084763 268.36079475 C-381.37076772 267.49842682 -381.3706878 266.63605889 -381.37060547 265.74755859 C-381.37052371 264.88413362 -381.37044195 264.02070865 -381.37035771 263.13111928 C-381.36954503 249.14215272 -381.38867933 235.15329388 -381.4168822 221.16435847 C-381.44563429 206.78918832 -381.4594212 192.41407067 -381.45769465 178.03887105 C-381.45703153 169.97289685 -381.46248945 161.90703558 -381.48405075 153.84108734 C-381.50229322 146.97284596 -381.50658484 140.10476869 -381.4930319 133.23651353 C-381.4865175 129.73532653 -381.48632908 126.2344541 -381.5037384 122.73329735 C-381.51920014 118.92964586 -381.50987497 115.12681528 -381.49447632 111.32318115 C-381.50476344 110.22773129 -381.51505057 109.13228143 -381.52564943 108.00363612 C-381.43173816 97.47411326 -378.54801644 87.62865764 -371 80 C-366.51058437 76.25630945 -362.40282979 73.17496912 -356.625 72 C-354.59328471 71.47749867 -354.59328471 71.47749867 -353 70 C-351.63409201 66.39855594 -350.80714264 62.75486439 -349.984375 59.00390625 C-347.09002714 46.23274898 -339.52748135 37.22225088 -329.08203125 29.86328125 C-321.26511163 25.13746292 -312.40870723 21.87263787 -303.2149229 21.87695217 C-302.27490104 21.87496112 -301.33487918 21.87297007 -300.36637181 21.87091869 C-298.82989333 21.87528795 -298.82989333 21.87528795 -297.26237488 21.87974548 C-296.16779427 21.87889106 -295.07321367 21.87803663 -293.94546396 21.87715632 C-290.27116189 21.87550685 -286.5969053 21.88101422 -282.92260742 21.88647461 C-280.2913615 21.88675662 -277.6601155 21.88659847 -275.02886963 21.8860321 C-269.36058772 21.88550789 -263.69231733 21.888644 -258.02403831 21.89426994 C-249.82867065 21.90239881 -241.63330855 21.90500159 -233.4379373 21.90625793 C-220.14132028 21.90844627 -206.84470939 21.91510045 -193.5480957 21.92456055 C-180.63208039 21.9337403 -167.71606674 21.94081838 -154.80004883 21.94506836 C-154.00383463 21.94533108 -153.20762042 21.94559381 -152.38727852 21.94586449 C-148.39288468 21.94716953 -144.39849082 21.94843324 -140.40409696 21.94967639 C-107.26939351 21.96004221 -74.13469757 21.9776546 -41 22 C-40.85828369 21.21753906 -40.71656738 20.43507813 -40.57055664 19.62890625 C-39.31659008 13.85110911 -35.02067092 9.38705915 -30.1875 6.1875 C-20.77306959 0.84125558 -10.70950428 -0.620312 0 0 Z M-294 180 C-294 222.57 -294 265.14 -294 309 C-283.44 309 -272.88 309 -262 309 C-262 266.43 -262 223.86 -262 180 C-272.56 180 -283.12 180 -294 180 Z " fill="#2F2D27" transform="translate(397,0)"/>
<path d="M0 0 C0.96056305 0.00045822 1.9211261 0.00091644 2.91079712 0.00138855 C4.92605842 0.00439249 6.94131779 0.01222253 8.95654297 0.0246582 C12.05053859 0.04303692 15.14423645 0.04516677 18.23828125 0.04492188 C20.20052344 0.04983323 22.16276359 0.05565987 24.125 0.0625 C25.51554092 0.06416924 25.51554092 0.06416924 26.93417358 0.06587219 C28.21658432 0.07544197 28.21658432 0.07544197 29.52490234 0.08520508 C30.27798676 0.08901688 31.03107117 0.09282867 31.80697632 0.09675598 C33.6640625 0.23046875 33.6640625 0.23046875 35.6640625 1.23046875 C35.6640625 111.78046875 35.6640625 222.33046875 35.6640625 336.23046875 C33.34406672 337.39046664 31.95704101 337.37496627 29.37304688 337.4074707 C28.48452026 337.42030594 27.59599365 337.43314117 26.68054199 337.44636536 C25.71604126 337.45375229 24.75154053 337.46113922 23.7578125 337.46875 C22.76334106 337.47682175 21.76886963 337.48489349 20.7442627 337.49320984 C18.63258613 337.50706222 16.52088707 337.51777919 14.40917969 337.52563477 C11.20463345 337.54275204 8.00114474 337.58661653 4.796875 337.63085938 C2.74219507 337.64099483 0.68750637 337.64950826 -1.3671875 337.65625 C-2.31549438 337.67375809 -3.26380127 337.69126617 -4.24084473 337.70930481 C-14.93499491 337.67506495 -22.52683454 333.92042244 -30.19921875 326.609375 C-35.25434027 320.9812781 -37.45289852 314.74684407 -37.47295189 307.25279045 C-37.47802643 306.24429192 -37.48310097 305.2357934 -37.48832929 304.19673431 C-37.48907593 302.53771707 -37.48907593 302.53771707 -37.48983765 300.84518433 C-37.49641103 299.08042132 -37.49641103 299.08042132 -37.5031172 297.28000653 C-37.51417432 294.01329105 -37.52072731 290.74660259 -37.52529836 287.4798727 C-37.5312607 283.95687329 -37.54286894 280.43389147 -37.55358887 276.91090393 C-37.57809804 268.40226043 -37.59273766 259.89361112 -37.60564893 251.38494319 C-37.60936189 248.98114321 -37.61333504 246.57734381 -37.6174016 244.17354441 C-37.64263868 229.24146951 -37.6646885 214.30939368 -37.67712975 199.37730217 C-37.68005937 195.9195035 -37.68302104 192.46170485 -37.68603516 189.00390625 C-37.68678121 188.14450369 -37.68752726 187.28510113 -37.68829592 186.39965607 C-37.70094688 172.48093878 -37.73416743 158.56234931 -37.77583699 144.64369176 C-37.81828141 130.34885912 -37.84182765 116.05409188 -37.84705031 101.7591964 C-37.85046153 93.73508697 -37.8621826 85.71117731 -37.89515305 77.68712997 C-37.92318921 70.85281077 -37.93413731 64.01873231 -37.92295758 57.18436007 C-37.91778 53.69944241 -37.92059794 50.21502862 -37.94542313 46.73018456 C-37.96809803 42.94558881 -37.9598251 39.16225746 -37.94393921 35.37765503 C-37.96476234 33.73871428 -37.96476234 33.73871428 -37.98600614 32.06666362 C-37.89186355 22.94670498 -35.18569312 16.06645323 -28.9609375 9.35546875 C-20.42782428 1.52269743 -11.22051601 -0.08812635 0 0 Z " fill="#FACA2F" transform="translate(60.3359375,75.76953125)"/>
<path d="M0 0 C6.33305966 3.58810925 9.99443409 6.87002102 12.328125 13.87109375 C12.42347878 15.57574848 12.46082827 17.2839054 12.46513939 18.99121952 C12.47021393 20.05694472 12.47528847 21.12266993 12.48051679 22.22068983 C12.48101455 23.39576029 12.48151231 24.57083075 12.48202515 25.7815094 C12.48859853 27.64912136 12.48859853 27.64912136 12.4953047 29.55446285 C12.50637613 33.01727158 12.51291927 36.48003509 12.51748586 39.942855 C12.52344104 43.67514404 12.5350512 47.40741641 12.54577637 51.13969421 C12.57030385 60.15747377 12.58492884 69.17525885 12.59783643 78.1930615 C12.60154837 80.74030533 12.60552161 83.28754861 12.6095891 85.8347919 C12.63482765 101.65375682 12.65688021 117.47272261 12.66931725 133.29170322 C12.67224694 136.95626898 12.6752086 140.6208347 12.67822266 144.28540039 C12.67896871 145.1962089 12.67971476 146.10701741 12.68048342 147.04542618 C12.69313305 161.79515219 12.72635044 176.54475754 12.76802449 191.29442716 C12.8104633 206.43899743 12.8340146 221.58350596 12.83923781 236.72813553 C12.84264992 245.23068489 12.85438128 253.73304577 12.88734055 262.23553658 C12.91536913 269.47794198 12.92632817 276.72012026 12.91514508 283.96257568 C12.90996537 287.65607793 12.91279958 291.34910479 12.93761063 295.04253769 C12.96432312 299.05261754 12.95201947 303.06165544 12.93612671 307.0717926 C12.9500088 308.23124801 12.96389088 309.39070341 12.97819364 310.58529383 C12.9053779 318.05135544 11.49050466 323.60550487 7.328125 329.87109375 C3.28502428 333.79370471 -1.63344044 336.1825472 -7.296875 336.49609375 C-12.98667557 336.03448735 -17.56626381 334.14606932 -21.46875 329.9296875 C-25.12274572 325.20559303 -26.79299234 321.76515635 -26.8116827 315.71693993 C-26.81737394 314.64363123 -26.82306518 313.57032254 -26.82892889 312.46448934 C-26.83010876 311.28095487 -26.83128864 310.09742039 -26.83250427 308.87802124 C-26.83759209 307.62407393 -26.84267991 306.37012662 -26.84792191 305.07818091 C-26.86183595 301.59065318 -26.86941384 298.1031359 -26.8758949 294.61558747 C-26.88226422 291.62588372 -26.89233456 288.63619714 -26.90245556 285.64650409 C-26.93578637 275.79581006 -26.95730238 265.94510559 -26.97565541 256.09437364 C-26.98045035 253.52937427 -26.98543368 250.96437532 -26.99046063 248.39937639 C-27.02143201 232.47171578 -27.04811795 216.54405154 -27.06487942 200.61636925 C-27.06882893 196.92670053 -27.07283192 193.23703187 -27.0769043 189.54736328 C-27.07791266 188.63031123 -27.07892102 187.71325918 -27.07995994 186.76841767 C-27.09696487 171.91452802 -27.13807181 157.06080502 -27.18892729 142.20699672 C-27.24070858 126.95734144 -27.26982236 111.70777185 -27.2770763 96.45802939 C-27.28173794 87.89567051 -27.29648259 79.33358453 -27.3368206 70.77131271 C-27.37113524 63.47871675 -27.38505422 56.18644292 -27.37239646 48.89377086 C-27.36657278 45.17398428 -27.37041149 41.45487886 -27.4005661 37.73519516 C-27.43302417 33.69835265 -27.41876789 29.66299777 -27.40013123 25.62606812 C-27.41692615 24.45591797 -27.43372108 23.28576783 -27.45102495 22.08015859 C-27.36346478 14.49047649 -25.81966534 9.55453342 -20.671875 3.87109375 C-14.71520641 -1.28290532 -7.36561914 -3.11208177 0 0 Z " fill="#F9C92F" transform="translate(259.671875,77.12890625)"/>
<path d="M0 0 C6.63786344 2.91785236 10.31670954 6.62248667 13.4609375 13.19921875 C14.29160042 17.45244397 14.26403171 21.59721107 14.2093811 25.92054749 C14.21732992 27.18032691 14.22527873 28.44010633 14.23346841 29.73806089 C14.25453826 33.21432727 14.23845482 36.68955733 14.21596742 40.1657778 C14.19821999 43.922498 14.21518847 47.67908718 14.22769165 51.43580627 C14.24663468 58.78678235 14.23349767 66.13736481 14.20916577 73.4883116 C14.18187648 82.05282642 14.18520578 90.61724828 14.18943243 99.18179553 C14.19580729 114.46478354 14.17250456 129.74758491 14.13330078 145.03051758 C14.09528784 159.85316653 14.08112801 174.6755968 14.09228516 189.49829102 C14.10440602 205.64902656 14.10403748 221.79966603 14.08131349 237.95039362 C14.07889897 239.67312554 14.076487 241.39585747 14.07407761 243.1185894 C14.07287053 243.96615478 14.07166345 244.81372015 14.0704198 245.68696933 C14.06266785 251.65403109 14.06344623 257.62105705 14.0672493 263.58812141 C14.07149741 270.8612034 14.06101326 278.13409407 14.03202219 285.4071222 C14.01755425 289.11652386 14.00936273 292.82564719 14.01850891 296.53507233 C14.02818817 300.55861354 14.00679665 304.58139527 13.98233032 308.60487366 C13.98988897 309.77384392 13.99744762 310.94281419 14.00523531 312.1472078 C13.93185506 318.96198399 13.11623413 323.39907493 9.4609375 329.19921875 C5.13123234 333.4149843 0.30767767 336.30016976 -5.7890625 336.76171875 C-11.53685678 336.52870006 -16.36062929 334.08018072 -20.5390625 330.19921875 C-25.7470156 323.25225062 -26.25351976 316.99161634 -26.16725159 308.51585388 C-26.17434597 307.26015801 -26.18144036 306.00446214 -26.18874973 304.71071488 C-26.20759365 301.2459678 -26.1954837 297.78193125 -26.1780268 294.31720269 C-26.16461345 290.57275955 -26.18010397 286.82841768 -26.19184875 283.08398438 C-26.21019973 275.75712087 -26.20173037 268.43052456 -26.18376053 261.10366946 C-26.16971926 255.14807904 -26.16584501 249.19256102 -26.1692028 243.23695564 C-26.16968025 242.38844893 -26.17015769 241.53994223 -26.1706496 240.66572319 C-26.17167596 238.94186383 -26.17273132 237.21800449 -26.17381536 235.49414516 C-26.18237715 220.26109874 -26.16572383 205.0281811 -26.13598633 189.79516602 C-26.10714511 175.02102246 -26.10006846 160.24706439 -26.11547852 145.47290039 C-26.13224644 129.37490867 -26.13626925 113.27700495 -26.11876816 97.17901093 C-26.11692381 95.46189599 -26.11508908 93.74478105 -26.11326408 92.02766609 C-26.11235199 91.18286483 -26.1114399 90.33806356 -26.11050018 89.46766226 C-26.10489885 83.52013311 -26.10819815 77.57264698 -26.11480904 71.62512016 C-26.12254718 64.37583541 -26.11577221 57.12673311 -26.090634 49.87748509 C-26.07815062 46.18022891 -26.07197817 42.48325663 -26.08317566 38.78598976 C-26.09509202 34.77559718 -26.0759359 30.76594866 -26.0537262 26.75559998 C-26.06196696 25.59052066 -26.07020773 24.42544134 -26.07869822 23.22505659 C-26.00910197 16.42284805 -25.19278398 11.98709921 -21.5390625 6.19921875 C-19.25 4.140625 -19.25 4.140625 -16.9140625 2.76171875 C-16.13804687 2.28863281 -15.36203125 1.81554687 -14.5625 1.328125 C-9.62996845 -1.42380863 -5.3776716 -1.69603489 0 0 Z " fill="#FAC92F" transform="translate(394.5390625,76.80078125)"/>
<path d="M0 0 C6.63786344 2.91785236 10.31670954 6.62248667 13.4609375 13.19921875 C14.29160042 17.45244397 14.26403171 21.59721107 14.2093811 25.92054749 C14.21732992 27.18032691 14.22527873 28.44010633 14.23346841 29.73806089 C14.25453826 33.21432727 14.23845482 36.68955733 14.21596742 40.1657778 C14.19821999 43.922498 14.21518847 47.67908718 14.22769165 51.43580627 C14.24663468 58.78678235 14.23349767 66.13736481 14.20916577 73.4883116 C14.18187648 82.05282642 14.18520578 90.61724828 14.18943243 99.18179553 C14.19580729 114.46478354 14.17250456 129.74758491 14.13330078 145.03051758 C14.09528784 159.85316653 14.08112801 174.6755968 14.09228516 189.49829102 C14.10440602 205.64902656 14.10403748 221.79966603 14.08131349 237.95039362 C14.07889897 239.67312554 14.076487 241.39585747 14.07407761 243.1185894 C14.07287053 243.96615478 14.07166345 244.81372015 14.0704198 245.68696933 C14.06266785 251.65403109 14.06344623 257.62105705 14.0672493 263.58812141 C14.07149741 270.8612034 14.06101326 278.13409407 14.03202219 285.4071222 C14.01755425 289.11652386 14.00936273 292.82564719 14.01850891 296.53507233 C14.02818817 300.55861354 14.00679665 304.58139527 13.98233032 308.60487366 C13.98988897 309.77384392 13.99744762 310.94281419 14.00523531 312.1472078 C13.93185506 318.96198399 13.11623413 323.39907493 9.4609375 329.19921875 C5.13123234 333.4149843 0.30767767 336.30016976 -5.7890625 336.76171875 C-11.53685678 336.52870006 -16.36062929 334.08018072 -20.5390625 330.19921875 C-25.7470156 323.25225062 -26.25351976 316.99161634 -26.16725159 308.51585388 C-26.17434597 307.26015801 -26.18144036 306.00446214 -26.18874973 304.71071488 C-26.20759365 301.2459678 -26.1954837 297.78193125 -26.1780268 294.31720269 C-26.16461345 290.57275955 -26.18010397 286.82841768 -26.19184875 283.08398438 C-26.21019973 275.75712087 -26.20173037 268.43052456 -26.18376053 261.10366946 C-26.16971926 255.14807904 -26.16584501 249.19256102 -26.1692028 243.23695564 C-26.16968025 242.38844893 -26.17015769 241.53994223 -26.1706496 240.66572319 C-26.17167596 238.94186383 -26.17273132 237.21800449 -26.17381536 235.49414516 C-26.18237715 220.26109874 -26.16572383 205.0281811 -26.13598633 189.79516602 C-26.10714511 175.02102246 -26.10006846 160.24706439 -26.11547852 145.47290039 C-26.13224644 129.37490867 -26.13626925 113.27700495 -26.11876816 97.17901093 C-26.11692381 95.46189599 -26.11508908 93.74478105 -26.11326408 92.02766609 C-26.11235199 91.18286483 -26.1114399 90.33806356 -26.11050018 89.46766226 C-26.10489885 83.52013311 -26.10819815 77.57264698 -26.11480904 71.62512016 C-26.12254718 64.37583541 -26.11577221 57.12673311 -26.090634 49.87748509 C-26.07815062 46.18022891 -26.07197817 42.48325663 -26.08317566 38.78598976 C-26.09509202 34.77559718 -26.0759359 30.76594866 -26.0537262 26.75559998 C-26.06196696 25.59052066 -26.07020773 24.42544134 -26.07869822 23.22505659 C-26.00910197 16.42284805 -25.19278398 11.98709921 -21.5390625 6.19921875 C-19.25 4.140625 -19.25 4.140625 -16.9140625 2.76171875 C-16.13804687 2.28863281 -15.36203125 1.81554687 -14.5625 1.328125 C-9.62996845 -1.42380863 -5.3776716 -1.69603489 0 0 Z " fill="#FAC92F" transform="translate(167.5390625,76.80078125)"/>
<path d="M0 0 C5.51991498 2.68382073 8.95380479 6.677339 11.3125 12.375 C11.56665033 14.84390569 11.56665033 14.84390569 11.57256222 17.67061234 C11.57962781 18.75001217 11.5866934 19.82941201 11.5939731 20.94152093 C11.59155802 22.12671563 11.58914293 23.31191033 11.58665466 24.53302002 C11.59450968 26.4224063 11.59450968 26.4224063 11.60252339 28.349962 C11.61671562 31.84858735 11.61836645 35.34712392 11.61792648 38.84577394 C11.61957362 42.61823508 11.63263825 46.39065954 11.64411926 50.1631012 C11.66697675 58.41313784 11.67489072 66.66314877 11.67994571 74.91321278 C11.68320196 80.06455939 11.68972401 85.21589852 11.6969471 90.36724091 C11.71651426 104.62976466 11.7329177 118.89228145 11.73582363 133.15481949 C11.73610499 134.52407783 11.73610499 134.52407783 11.73639202 135.92099796 C11.73675828 137.77155065 11.73712197 139.62210335 11.73748314 141.47265604 C11.73775735 142.85058339 11.73775735 142.85058339 11.73803711 144.25634766 C11.73821766 145.17608713 11.73839821 146.09582661 11.73858423 147.04343697 C11.74212584 161.94641977 11.7691469 176.84925806 11.806535 191.75219074 C11.84461342 207.05273166 11.86398108 222.35320087 11.86428314 237.65379024 C11.86486783 246.2445592 11.87336702 254.83515582 11.90228081 263.42588043 C11.92678854 270.74115779 11.9340818 278.05619995 11.91903328 285.37150726 C11.91186169 289.10323931 11.91273181 292.83450686 11.93544388 296.5661869 C11.95984462 300.61414818 11.94540529 304.66105165 11.92723083 308.70904541 C11.9404308 309.88531722 11.95363077 311.06158904 11.96723074 312.27350545 C11.89542082 319.26815956 10.92713303 323.98780017 6.3125 329.375 C1.28627533 334.14991343 -3.47696949 335.92538762 -10.34765625 335.75390625 C-15.7822694 334.87384369 -19.95084113 331.43989389 -23.5625 327.4375 C-28.26696691 320.65753299 -27.97622028 314.14124811 -27.95492554 306.16629028 C-27.95945665 304.92540834 -27.96398776 303.6845264 -27.96865618 302.40604198 C-27.97911867 298.96889511 -27.98062737 295.53195766 -27.97826743 292.09480977 C-27.97785892 288.38510089 -27.98890159 284.67542311 -27.99838257 280.96572876 C-28.01498556 273.70070484 -28.02049178 266.43571338 -28.02160732 259.17067207 C-28.02255804 253.26508157 -28.02666953 247.35950176 -28.03300858 241.45391464 C-28.05061836 224.70727477 -28.05984775 207.96066052 -28.05834763 191.21401133 C-28.05826772 190.31145888 -28.0581878 189.40890643 -28.05810547 188.47900391 C-28.05802371 187.57534851 -28.05794195 186.67169311 -28.05785771 185.74065422 C-28.05704468 171.09324706 -28.07618734 156.4459427 -28.1043822 141.79856528 C-28.13310989 126.75560429 -28.14692259 111.71269344 -28.14519465 96.66970432 C-28.14453075 88.22542852 -28.15002302 79.78126052 -28.17155075 71.33700943 C-28.18976095 64.14806352 -28.19411119 56.95927429 -28.1805319 49.7703153 C-28.17400164 46.10344032 -28.17388686 42.43686593 -28.1912384 38.77001953 C-28.20986663 34.79243282 -28.19741616 30.81528508 -28.18197632 26.837677 C-28.19226344 25.68222417 -28.20255057 24.52677134 -28.21314943 23.33630478 C-28.14769482 15.71325507 -27.09781769 10.24900124 -21.90625 4.3515625 C-21.3390625 3.90554687 -20.771875 3.45953125 -20.1875 3 C-19.6203125 2.53851563 -19.053125 2.07703125 -18.46875 1.6015625 C-12.39263858 -2.5824265 -6.7533345 -2.7013338 0 0 Z " fill="#F9C92F" transform="translate(305.6875,77.625)"/>
<path d="M0 0 C4.03102721 2.5239644 7.03181985 6.10660846 9.15234375 10.34765625 C9.25162828 12.03896949 9.28697185 13.73419072 9.29215145 15.42840767 C9.29784269 16.5107922 9.30353393 17.59317673 9.30939764 18.70836079 C9.31057751 19.90716307 9.31175739 21.10596535 9.31297302 22.34109497 C9.31806084 23.60714408 9.32314866 24.87319319 9.32839066 26.17760742 C9.34232294 29.70352985 9.34988775 33.22944194 9.35636365 36.75538492 C9.36272735 39.77684862 9.37279852 42.79829527 9.38292431 45.81974836 C9.41627688 55.77651753 9.43777591 65.73329708 9.45612416 75.69010383 C9.46091795 78.28239792 9.46590143 80.87469158 9.47092938 83.46698523 C9.50190127 99.55982041 9.52859099 115.65265917 9.54534817 131.74551582 C9.54929777 135.47454968 9.55330075 139.20358347 9.55737305 142.93261719 C9.55838141 143.8594689 9.55938977 144.7863206 9.56042869 145.74125873 C9.57743405 160.75431654 9.61854021 175.76720947 9.66939604 190.78018679 C9.72116429 206.18913734 9.75028947 221.59800311 9.75754505 237.0070399 C9.76220853 245.66048336 9.77697227 254.31365691 9.81728935 262.96701431 C9.85158612 270.33724956 9.86553026 277.70716622 9.85286521 285.0774767 C9.8470372 288.83763485 9.85091075 292.59711922 9.88103485 296.35717583 C9.91344593 300.43601881 9.89925186 304.51338697 9.88059998 308.59231567 C9.90579237 310.3704426 9.90579237 310.3704426 9.9314937 312.18449128 C9.85696387 318.69855132 9.10154496 322.72949598 4.82986599 327.75311744 C0.26335244 332.09373534 -3.91264633 334.02154404 -10.22265625 334.72265625 C-16.63977896 334.05881597 -21.05216597 331.57337956 -25.28515625 326.72265625 C-28.20669003 323.07670946 -28.97294033 320.96189936 -28.98187733 316.26131821 C-28.98633517 315.17770028 -28.99079301 314.09408235 -28.99538594 312.97762752 C-28.99520158 311.777461 -28.99501722 310.57729448 -28.99482727 309.34075928 C-28.99850396 308.07329904 -29.00218065 306.8058388 -29.00596875 305.49997067 C-29.01600505 301.97018203 -29.01970816 298.44041038 -29.02235806 294.91060948 C-29.0262563 291.10816933 -29.03583497 287.3057427 -29.04457092 283.50331116 C-29.06434907 274.31457005 -29.07440331 265.12582781 -29.08329871 255.93707073 C-29.08767945 251.61235601 -29.09304682 247.28764252 -29.09828758 242.96292877 C-29.11530131 228.59067921 -29.12979611 214.21843042 -29.13703632 199.84617233 C-29.13894629 196.11505889 -29.14086661 192.38394545 -29.14282227 188.65283203 C-29.14330601 187.7254557 -29.14378975 186.79807937 -29.14428815 185.84260073 C-29.15259076 170.81530243 -29.17793093 155.78808368 -29.21040294 140.76082012 C-29.24345308 125.340577 -29.26148324 109.92037434 -29.26468056 94.50009561 C-29.26684758 85.83895961 -29.27562406 77.1779396 -29.30114174 68.51683807 C-29.32282084 61.14146443 -29.33091297 53.76623494 -29.32117496 46.39083305 C-29.31662208 42.62701788 -29.31857332 38.86350031 -29.3379364 35.09972572 C-29.35874162 31.02043573 -29.34860916 26.94180922 -29.33540344 22.86248779 C-29.34637269 21.67124416 -29.35734193 20.48000053 -29.36864358 19.25265861 C-29.31000004 11.77570852 -28.48928217 8.18486822 -23.3203125 2.73828125 C-15.672357 -3.44787666 -8.89125458 -4.24044449 0 0 Z " fill="#FBCA2F" transform="translate(443.84765625,78.65234375)"/>
<path d="M0 0 C5.06358941 2.99779866 9.14494539 6.76645328 11.80859375 12.09375 C11.90525504 13.78179261 11.93777389 15.47366429 11.94002151 17.16447067 C11.94386266 18.24460521 11.9477038 19.32473974 11.95166135 20.43760562 C11.95079487 21.63388119 11.94992838 22.83015676 11.94903564 24.06268311 C11.95200677 25.32605979 11.95497789 26.58943648 11.95803905 27.89109731 C11.96612735 31.40948686 11.96789963 34.92785603 11.96863651 38.44625378 C11.97048392 42.2364221 11.97802971 46.02657976 11.98477173 49.81674194 C11.99836901 58.11014885 12.00438206 66.40355093 12.00878239 74.69696712 C12.01154271 79.87341095 12.01577969 85.04985291 12.02028656 90.22629547 C12.03248152 104.55222329 12.04278008 118.8781496 12.04616165 133.20408249 C12.046491 134.5801523 12.046491 134.5801523 12.046827 135.9840215 C12.04715442 137.36342888 12.04715442 137.36342888 12.04748845 138.77070308 C12.04793192 140.63424476 12.04837848 142.49778644 12.04882812 144.36132812 C12.04904955 145.28571384 12.04927098 146.21009955 12.04949912 147.16249695 C12.05344722 162.14128069 12.07090059 177.12001578 12.09418765 192.09878072 C12.11789126 207.46930363 12.13036307 222.83980212 12.13152957 238.2103436 C12.13244694 246.8435107 12.13821471 255.47661443 12.15634918 264.1097641 C12.17173689 271.46133383 12.17687855 278.81282064 12.16861108 286.16440341 C12.16469971 289.91601677 12.16565773 293.66746305 12.17966843 297.41905594 C12.19471477 301.48511925 12.18655522 305.55080478 12.17608643 309.61688232 C12.18414283 310.80423501 12.19219923 311.99158769 12.20049977 313.21492076 C12.16024338 319.87702512 11.83710076 324.80525515 7.125 329.921875 C6.54621094 330.39109375 5.96742188 330.8603125 5.37109375 331.34375 C4.79488281 331.82328125 4.21867187 332.3028125 3.625 332.796875 C-1.2469246 336.27532439 -5.30055233 336.86886236 -11.19140625 336.09375 C-17.84728849 334.0019013 -21.74633738 330.15921468 -25.30796486 324.23722577 C-26.38475554 321.62463058 -26.44556062 319.622912 -26.45146847 316.79813766 C-26.45853406 315.71873783 -26.46559965 314.63933799 -26.47287935 313.52722907 C-26.47046427 312.34203437 -26.46804918 311.15683967 -26.46556091 309.93572998 C-26.47341593 308.0463437 -26.47341593 308.0463437 -26.48142964 306.118788 C-26.49562187 302.62016265 -26.4972727 299.12162608 -26.49683273 295.62297606 C-26.49847987 291.85051492 -26.5115445 288.07809046 -26.52302551 284.3056488 C-26.545883 276.05561216 -26.55379697 267.80560123 -26.55885196 259.55553722 C-26.56210821 254.40419061 -26.56863026 249.25285148 -26.57585335 244.10150909 C-26.59542051 229.83898534 -26.61182395 215.57646855 -26.61472988 201.31393051 C-26.61501124 199.94467217 -26.61501124 199.94467217 -26.61529827 198.54775204 C-26.61566453 196.69719935 -26.61602822 194.84664665 -26.61638939 192.99609396 C-26.6165722 192.07747573 -26.61675501 191.15885749 -26.61694336 190.21240234 C-26.61712391 189.29266287 -26.61730446 188.37292339 -26.61749048 187.42531303 C-26.62103209 172.52233023 -26.64805315 157.61949194 -26.68544125 142.71655926 C-26.72351967 127.41601834 -26.74288733 112.11554913 -26.74318939 96.81495976 C-26.74377408 88.2241908 -26.75227327 79.63359418 -26.78118706 71.04286957 C-26.80569479 63.72759221 -26.81298805 56.41255005 -26.79793953 49.09724274 C-26.79076794 45.36551069 -26.79163806 41.63424314 -26.81435013 37.9025631 C-26.83875087 33.85460182 -26.82431154 29.80769835 -26.80613708 25.75970459 C-26.81933705 24.58343278 -26.83253702 23.40716096 -26.84613699 22.19524455 C-26.775092 15.27509861 -25.90373787 10.35272196 -21.19140625 5.09375 C-15.13086464 -0.22109802 -7.84434005 -3.24400515 0 0 Z " fill="#FBCA2F" transform="translate(350.19140625,76.90625)"/>
<path d="M0 0 C4.03102721 2.5239644 7.03181985 6.10660846 9.15234375 10.34765625 C9.25162828 12.03896949 9.28697185 13.73419072 9.29215145 15.42840767 C9.29784269 16.5107922 9.30353393 17.59317673 9.30939764 18.70836079 C9.31057751 19.90716307 9.31175739 21.10596535 9.31297302 22.34109497 C9.31806084 23.60714408 9.32314866 24.87319319 9.32839066 26.17760742 C9.34232294 29.70352985 9.34988775 33.22944194 9.35636365 36.75538492 C9.36272735 39.77684862 9.37279852 42.79829527 9.38292431 45.81974836 C9.41627688 55.77651753 9.43777591 65.73329708 9.45612416 75.69010383 C9.46091795 78.28239792 9.46590143 80.87469158 9.47092938 83.46698523 C9.50190127 99.55982041 9.52859099 115.65265917 9.54534817 131.74551582 C9.54929777 135.47454968 9.55330075 139.20358347 9.55737305 142.93261719 C9.55838141 143.8594689 9.55938977 144.7863206 9.56042869 145.74125873 C9.57743405 160.75431654 9.61854021 175.76720947 9.66939604 190.78018679 C9.72116429 206.18913734 9.75028947 221.59800311 9.75754505 237.0070399 C9.76220853 245.66048336 9.77697227 254.31365691 9.81728935 262.96701431 C9.85158612 270.33724956 9.86553026 277.70716622 9.85286521 285.0774767 C9.8470372 288.83763485 9.85091075 292.59711922 9.88103485 296.35717583 C9.91344593 300.43601881 9.89925186 304.51338697 9.88059998 308.59231567 C9.90579237 310.3704426 9.90579237 310.3704426 9.9314937 312.18449128 C9.85696387 318.69855132 9.10154496 322.72949598 4.82986599 327.75311744 C0.26335244 332.09373534 -3.91264633 334.02154404 -10.22265625 334.72265625 C-16.63977896 334.05881597 -21.05216597 331.57337956 -25.28515625 326.72265625 C-28.20669003 323.07670946 -28.97294033 320.96189936 -28.98187733 316.26131821 C-28.98633517 315.17770028 -28.99079301 314.09408235 -28.99538594 312.97762752 C-28.99520158 311.777461 -28.99501722 310.57729448 -28.99482727 309.34075928 C-28.99850396 308.07329904 -29.00218065 306.8058388 -29.00596875 305.49997067 C-29.01600505 301.97018203 -29.01970816 298.44041038 -29.02235806 294.91060948 C-29.0262563 291.10816933 -29.03583497 287.3057427 -29.04457092 283.50331116 C-29.06434907 274.31457005 -29.07440331 265.12582781 -29.08329871 255.93707073 C-29.08767945 251.61235601 -29.09304682 247.28764252 -29.09828758 242.96292877 C-29.11530131 228.59067921 -29.12979611 214.21843042 -29.13703632 199.84617233 C-29.13894629 196.11505889 -29.14086661 192.38394545 -29.14282227 188.65283203 C-29.14330601 187.7254557 -29.14378975 186.79807937 -29.14428815 185.84260073 C-29.15259076 170.81530243 -29.17793093 155.78808368 -29.21040294 140.76082012 C-29.24345308 125.340577 -29.26148324 109.92037434 -29.26468056 94.50009561 C-29.26684758 85.83895961 -29.27562406 77.1779396 -29.30114174 68.51683807 C-29.32282084 61.14146443 -29.33091297 53.76623494 -29.32117496 46.39083305 C-29.31662208 42.62701788 -29.31857332 38.86350031 -29.3379364 35.09972572 C-29.35874162 31.02043573 -29.34860916 26.94180922 -29.33540344 22.86248779 C-29.34637269 21.67124416 -29.35734193 20.48000053 -29.36864358 19.25265861 C-29.31000004 11.77570852 -28.48928217 8.18486822 -23.3203125 2.73828125 C-15.672357 -3.44787666 -8.89125458 -4.24044449 0 0 Z " fill="#FBCA2F" transform="translate(216.84765625,78.65234375)"/>
<path d="M0 0 C7.84230809 4.19328461 11.74351082 11.12506371 14.4765625 19.32421875 C15.49735876 27.82599333 13.86746086 34.97534923 9.4765625 42.32421875 C3.71282895 49.25853648 -2.55508605 52.61254541 -11.40625 53.66796875 C-20.05062661 54.11013635 -26.31093706 52.03437672 -32.81640625 46.3046875 C-39.04440427 39.82711579 -41.55095986 33.74433838 -41.9609375 24.82421875 C-41.68216217 16.49580575 -38.21704748 10.12794485 -32.55859375 4.12109375 C-22.95203112 -4.36070819 -11.56824116 -4.75064658 0 0 Z " fill="#FC7F47" transform="translate(447.5234375,451.67578125)"/>
<path d="M0 0 C6.31769698 3.76140341 10.30138866 9.0431151 12.26953125 16.12109375 C14.02727509 26.20832641 12.72291817 34.30483129 7.140625 42.796875 C2.88517533 48.214841 -3.58700244 51.31152731 -10.296875 52.609375 C-19.72204928 53.51478544 -26.63580691 51.66686103 -34.109375 45.859375 C-39.26873878 41.14292644 -41.97956058 34.82599553 -42.5 27.91015625 C-42.65739095 17.87648293 -41.26705899 10.79402439 -34.26953125 3.3359375 C-24.39709279 -5.30488983 -11.49683367 -5.35716333 0 0 Z " fill="#FD7F47" transform="translate(74.296875,452.390625)"/>
<path d="M0 0 C3.85544798 1.99657127 5.59805092 3.39707638 8 7 C8.19903833 9.5105741 8.2834109 11.91042962 8.2746582 14.42138672 C8.2823246 15.5511644 8.2823246 15.5511644 8.29014587 16.70376587 C8.30405575 19.1958204 8.30308387 21.68759874 8.30078125 24.1796875 C8.30466786 25.91220198 8.30900245 27.6447155 8.31376648 29.37722778 C8.32123201 33.01046841 8.32093534 36.64361188 8.31567383 40.27685547 C8.3098834 44.92971454 8.32679811 49.582175 8.3500185 54.23496819 C8.36476205 57.81408 8.36562662 61.39309601 8.36250877 64.97223282 C8.36302183 66.68741774 8.36825662 68.40260805 8.37832069 70.11776352 C8.39067788 72.51871239 8.38389782 74.91888744 8.37231445 77.31982422 C8.38378006 78.37982635 8.38378006 78.37982635 8.39547729 79.46124268 C8.34916123 83.81162751 7.66595535 86.54210105 5 90 C1.18850123 92.57054568 -2.32652355 93.64785885 -6.96875 93.49609375 C-10.79656225 92.56122422 -13.42847316 89.87712858 -16 87 C-17.49087421 84.01825159 -17.16468939 80.96299258 -17.17700195 77.69213867 C-17.18357315 76.93909958 -17.19014435 76.18606049 -17.19691467 75.41020203 C-17.21665982 72.91278997 -17.22831299 70.41543807 -17.23828125 67.91796875 C-17.24235678 67.06550379 -17.2464323 66.21303883 -17.25063133 65.33474159 C-17.27149737 60.82269151 -17.2857967 56.31067189 -17.29516602 51.79858398 C-17.306231 47.13778861 -17.34063014 42.47747059 -17.38033772 37.81684399 C-17.40648207 34.23345552 -17.4148559 30.65018116 -17.41844749 27.0667057 C-17.4233192 25.34870492 -17.43494986 23.63070944 -17.45348549 21.91280174 C-17.47783111 19.50683138 -17.47692079 17.10210073 -17.4699707 14.69604492 C-17.48278076 13.98780579 -17.49559082 13.27956665 -17.50878906 12.54986572 C-17.4583302 7.75173654 -16.3891166 5.36692745 -13 2 C-8.74748617 -0.83500922 -4.99342406 -0.64456329 0 0 Z " fill="#2B2A27" transform="translate(64,99)"/>
<path d="M0 0 C10.89 0 21.78 0 33 0 C33 12.87 33 25.74 33 39 C22.11 39 11.22 39 0 39 C0 26.13 0 13.26 0 0 Z " fill="#FA7E47" transform="translate(103,316)"/>
<path d="M0 0 C10.89 0 21.78 0 33 0 C33 12.87 33 25.74 33 39 C22.11 39 11.22 39 0 39 C0 26.13 0 13.26 0 0 Z " fill="#FA7E47" transform="translate(103,134)"/>
<path d="M0 0 C3.375 0.9375 3.375 0.9375 5.375 3.9375 C5.64915466 6.99801636 5.64915466 6.99801636 5.68139648 10.80810547 C5.69388176 11.85010101 5.69388176 11.85010101 5.70661926 12.91314697 C5.73072136 15.21038411 5.73949152 17.50733732 5.74609375 19.8046875 C5.75506007 21.40268031 5.76418192 23.00067226 5.77345276 24.59866333 C5.78994595 27.94942261 5.79764343 31.30008193 5.80053711 34.65087891 C5.80592082 38.94078073 5.84359774 43.22974085 5.88928127 47.51937675 C5.91905122 50.82056086 5.92626064 54.12151819 5.92726326 57.42282486 C5.93146589 59.00407346 5.94390208 60.58532272 5.96478081 62.16643906 C5.99169606 64.38102827 5.98687199 66.59343519 5.97436523 68.80810547 C5.97943588 70.06702606 5.98450653 71.32594666 5.98973083 72.62301636 C5.20980452 76.82819505 3.69953227 78.33225269 0.375 80.9375 C-2.25 81 -2.25 81 -4.625 79.9375 C-8.03305278 76.51743316 -8.00884113 73.64392299 -8.02905273 68.9375 C-8.03591599 68.24108398 -8.04277924 67.54466797 -8.04985046 66.82714844 C-8.06811783 64.53039025 -8.06428178 62.23431508 -8.05859375 59.9375 C-8.06315523 58.33853941 -8.06846071 56.73958078 -8.07447815 55.140625 C-8.08340881 51.79158557 -8.08098632 48.44278462 -8.07104492 45.09375 C-8.05954826 40.80274987 -8.07977687 36.51257181 -8.10896206 32.22167969 C-8.1273097 28.92051978 -8.12703465 25.61955747 -8.12132454 22.31835938 C-8.12117118 20.73631638 -8.12722734 19.15426012 -8.13961601 17.57226562 C-8.15450009 15.3601524 -8.14387079 13.14956554 -8.12670898 10.9375 C-8.12654282 9.679375 -8.12637665 8.42125 -8.12620544 7.125 C-7.625 3.9375 -7.625 3.9375 -5.82020569 1.49609375 C-3.625 -0.0625 -3.625 -0.0625 0 0 Z " fill="#F3F2EE" transform="translate(60.625,105.0625)"/>
<path d="M0 0 C18.03151709 0 18.03151709 0 22.453125 3.43359375 C26.96100765 7.99839411 30.07356586 12.63710431 30.375 19.1875 C30.29614083 25.24979854 27.62322996 29.22908149 23.54296875 33.5390625 C16.33207513 40.04599025 9.68701295 39 0 39 C0 26.13 0 13.26 0 0 Z " fill="#FB7E47" transform="translate(460,316)"/>
<path d="M0 0 C17.86078886 0 17.86078886 0 23.7421875 5.68359375 C28.28948981 10.7421956 30.4933893 14.75120678 30.3125 21.625 C29.59774986 27.0571011 27.11326772 31.3046001 23 34.875 C14.54333542 40.86513741 13.08795238 39 0 39 C0 26.13 0 13.26 0 0 Z " fill="#FB7E47" transform="translate(460,134)"/>
<path d="M0 0 C0 11.88 0 23.76 0 36 C-10.07067659 36 -17.57054914 34.01765682 -25 27 C-28.31572892 23.26884332 -28.69776825 20.49258524 -28.5390625 15.6015625 C-27.5548959 10.85188889 -24.67899439 7.9943695 -21 5 C-13.75560881 0.43920628 -8.98133158 0 0 0 Z " fill="#F6F5F1" transform="translate(391,8)"/>
<path d="M0 0 C3.13946495 2.56865314 5.37942849 4.53502954 6.25390625 8.58203125 C6.39317536 14.47775678 5.49490392 17.63488847 1.453125 21.97265625 C-2.27041459 24.76531094 -6.76205696 24.78246782 -11.25 24.25 C-15.07124769 21.85888264 -17.81098078 19.56705766 -19.25 15.25 C-19.75247331 11.48145017 -20.08718859 7.83730956 -18.2734375 4.3984375 C-13.27124473 -1.83128723 -7.35260341 -3.95909414 0 0 Z " fill="#323029" transform="translate(66.25,206.75)"/>
<path d="M0 0 C3.31036533 1.9165273 5.66338406 3.96574049 7.375 7.375 C8.21827157 11.53064228 8.37719039 15.44953184 6.3828125 19.28125 C4.16972959 22.08540474 1.81260425 24.36393993 -1.625 25.375 C-5.8487944 25.84431049 -8.07827135 25.65887834 -11.875 23.6875 C-15.29858206 20.80857872 -17.17821415 18.77139683 -18.01171875 14.30078125 C-18.3670757 9.64955368 -17.7840412 6.98024211 -14.75 3.375 C-10.35876813 -1.20715499 -6.19724282 -1.47553401 0 0 Z " fill="#312F29" transform="translate(64.625,244.625)"/>
<path d="M0 0 C3.63 0 7.26 0 11 0 C11 7.92 11 15.84 11 24 C7.37 24 3.74 24 0 24 C0 16.08 0 8.16 0 0 Z " fill="#F57C46" transform="translate(54,419)"/>
<path d="M0 0 C3.3 0 6.6 0 10 0 C10 7.59 10 15.18 10 23 C6.7 23 3.4 23 0 23 C0 15.41 0 7.82 0 0 Z " fill="#FD7F47" transform="translate(429,419)"/>
<path d="M0 0 C3.5625 0.375 3.5625 0.375 5.5625 2 C6.90430884 5.18679601 6.49197204 7.08609893 5.5625 10.375 C3.5625 12.375 3.5625 12.375 0.125 12.75 C-3.4375 12.375 -3.4375 12.375 -5.4375 10.75 C-6.77930884 7.56320399 -6.36697204 5.66390107 -5.4375 2.375 C-3.4375 0.375 -3.4375 0.375 0 0 Z " fill="#EEEDE9" transform="translate(59.4375,250.625)"/>
<path d="M0 0 C3.125 0.375 3.125 0.375 5.5625 2 C7.125 4.375 7.125 4.375 7 7.5 C6.125 10.375 6.125 10.375 4.125 12.375 C0.6875 12.75 0.6875 12.75 -2.875 12.375 C-4.875 10.75 -4.875 10.75 -5.875 8.375 C-5.58844949 3.59915821 -5.19565949 0.67769472 0 0 Z " fill="#EFEEEA" transform="translate(58.875,211.625)"/>
</svg>
