<?xml version="1.0" encoding="UTF-8"?>
<svg version="1.1" xmlns="http://www.w3.org/2000/svg" width="512" height="512">
<path d="M0 0 C1.57648315 0.01244751 1.57648315 0.01244751 3.18481445 0.02514648 C21.30038546 0.41759699 37.18306364 7.74976225 50.1875 20.4375 C63.53470558 35.47155621 68.66015996 52.00968531 68.69140625 71.7734375 C68.70107063 73.22547691 68.71116475 74.67751351 68.72166443 76.12954712 C68.73949061 79.15007309 68.74519837 82.17034322 68.7434082 85.19091797 C68.74310133 89.05487861 68.78432148 92.9172101 68.83572483 96.7807827 C68.86909274 99.76974007 68.87516612 102.75830053 68.87357903 105.74742508 C68.8771081 107.17238695 68.89031632 108.59736029 68.91357613 110.02213669 C69.0773782 121.07455219 69.0773782 121.07455219 66.89001465 124.42474365 C63.12847888 127.68977974 59.97891783 128.07604672 55.24609375 127.8046875 C52.55252121 127.32424003 51.00157516 126.48819366 49.1875 124.4375 C49.1875 123.7775 49.1875 123.1175 49.1875 122.4375 C48.5275 122.4375 47.8675 122.4375 47.1875 122.4375 C47.14625 123.675 47.105 124.9125 47.0625 126.1875 C45.8011784 137.04509269 39.12753138 146.27421082 31.1875 153.4375 C21.68660233 160.4375 21.68660233 160.4375 18.1875 160.4375 C18.78217062 163.14823206 19.38785551 165.85570837 20 168.5625 C20.2484668 169.70332031 20.2484668 169.70332031 20.50195312 170.8671875 C22.51714567 179.68840768 25.77906485 185.16872976 33.1875 190.4375 C42.93303255 196.24949799 54.47944685 198.35317861 65.5546875 200.17578125 C79.65345597 202.49962933 79.65345597 202.49962933 85.1875 207.4375 C86.12142578 208.25154297 86.12142578 208.25154297 87.07421875 209.08203125 C96.05827718 218.02842067 97.36912749 232.80857981 100.1484375 244.7734375 C100.32378651 245.52505787 100.49913551 246.27667824 100.67979813 247.05107498 C101.60365258 251.01311417 102.52176266 254.9764322 103.43505859 258.94091797 C104.37510868 263.01610569 105.33561442 267.08619216 106.30058861 271.15553856 C107.04464614 274.31000129 107.77341261 277.46785564 108.49809647 280.62681961 C108.84562779 282.12957369 109.19887258 283.63101899 109.5580864 285.13102341 C110.05809453 287.22508508 110.53611667 289.32307316 111.00927734 291.42333984 C111.28589203 292.61212738 111.56250671 293.80091492 111.84750366 295.02572632 C112.24737457 299.03832554 111.66643809 301.70055538 110.1875 305.4375 C103.36565332 309.98539779 91.12905528 307.76656194 83.1875 306.4375 C82.5275 306.1075 81.8675 305.7775 81.1875 305.4375 C81.22359375 306.67935059 81.2596875 307.92120117 81.296875 309.20068359 C81.29077768 317.90822456 80.2661855 326.56744204 79.4375 335.2265625 C79.25773353 337.14037343 79.07837807 339.054223 78.89941406 340.96810913 C78.43003635 345.97595804 77.95511917 350.98326629 77.47900391 355.99047852 C76.99303978 361.11182407 76.51237521 366.23366675 76.03125 371.35546875 C75.08848768 381.38330304 74.13986614 391.41057357 73.1875 401.4375 C74.18391258 401.63224159 74.18391258 401.63224159 75.20045471 401.83091736 C83.91494458 403.55058636 83.91494458 403.55058636 88.15234375 404.69140625 C105.29442159 409.89693617 105.29442159 409.89693617 122.1875 406.4375 C124.90189398 404.14093824 126.45545165 401.48403606 128.19921875 398.40625 C128.78421143 397.38136475 129.3692041 396.35647949 129.97192383 395.30053711 C130.59993896 394.19073486 131.2279541 393.08093262 131.875 391.9375 C133.22367681 389.57256466 134.5764607 387.20999039 135.9296875 384.84765625 C136.27798111 384.23886124 136.62627472 383.63006622 136.98512268 383.00282288 C141.4163783 375.27055966 145.97480168 367.61405024 150.53564453 359.95776367 C153.44619253 355.07012457 156.34906453 350.18113778 159.171875 345.2421875 C165.68067571 333.86404333 170.73130902 325.65055377 183.1875 320.4375 C182.77177734 319.71046875 182.77177734 319.71046875 182.34765625 318.96875 C178.52216393 311.88954713 177.21791086 305.69754711 179.27734375 297.80078125 C182.50747102 289.41354092 188.24060249 283.44867137 196.1875 279.4375 C207.60965468 274.55798063 220.71562757 271.74335617 232.8125 276 C238.19341098 278.55637963 240.67398541 281.87538989 242.9609375 287.2578125 C246.97724592 300.55857414 243.29687946 316.49178597 237.1875 328.4375 C237.86554688 328.94796875 238.54359375 329.4584375 239.2421875 329.984375 C262.82082861 348.40314728 277.26569756 378.32754446 280.93994141 407.78222656 C281.44335406 413.18174922 281.56276409 418.57978353 281.625 424 C281.64723633 425.10625732 281.66947266 426.21251465 281.69238281 427.35229492 C281.67379838 434.14852023 280.94629045 438.70821258 277.1875 444.4375 C273.9375 445.9375 273.9375 445.9375 271.1875 446.4375 C271.1875 447.0975 271.1875 447.7575 271.1875 448.4375 C272.1775 448.458125 273.1675 448.47875 274.1875 448.5 C279.35003611 449.21497445 282.80193679 452.6783574 286.1875 456.4375 C292.15779685 468.37809369 288.1875 483.0875104 288.1875 496.4375 C240.6675 496.4375 193.1475 496.4375 144.1875 496.4375 C144.1875 469.53724425 144.1875 469.53724425 154.1875 458.4375 C157.0625 455.9375 157.0625 455.9375 159.1875 454.4375 C149.15385048 456.04256237 139.38278134 458.58951567 129.55688477 461.12939453 C127.43605319 461.67616957 125.31382044 462.21721911 123.19140625 462.7578125 C121.94174072 463.08023926 120.6920752 463.40266602 119.40454102 463.73486328 C116.1875 464.4375 116.1875 464.4375 112.1875 464.4375 C112.1875 474.9975 112.1875 485.5575 112.1875 496.4375 C6.5875 496.4375 -99.0125 496.4375 -207.8125 496.4375 C-207.8125 401.90625 -207.8125 401.90625 -202.8125 396.125 C-195.05751755 389.58173356 -178.19233482 392.05956531 -168.30078125 391.68359375 C-166.6033661 391.61781445 -164.90595302 391.55198175 -163.20854187 391.48609924 C-159.65252848 391.34885227 -156.09643567 391.21391439 -152.5402832 391.08032227 C-148.96751779 390.94577996 -145.39495421 390.80711527 -141.82250977 390.66430664 C-118.80640621 389.74510987 -95.84783976 389.21612453 -72.8125 389.4375 C-73.1425 388.7775 -73.4725 388.1175 -73.8125 387.4375 C-74.04617546 384.98669347 -74.22675013 382.55438218 -74.36914062 380.09790039 C-74.44010201 378.96352287 -74.44010201 378.96352287 -74.51249695 377.80622864 C-74.61480551 376.16175568 -74.7151026 374.51715666 -74.81364441 372.87245369 C-74.96959728 370.27102282 -75.13087466 367.66997121 -75.2935791 365.06895447 C-75.63805742 359.54626293 -75.97565618 354.02316169 -76.3125 348.5 C-76.70281257 342.10455869 -77.09591477 335.70931093 -77.49565125 329.31445122 C-77.65459906 326.7492997 -77.80865406 324.18388384 -77.96252441 321.61842346 C-78.06006902 320.04776582 -78.15783534 318.47712193 -78.25585938 316.90649414 C-78.29744675 316.19106445 -78.33903412 315.47563477 -78.38188171 314.73852539 C-78.5720652 311.76109702 -78.86341425 309.28475724 -79.8125 306.4375 C-80.36035156 306.5096875 -80.90820312 306.581875 -81.47265625 306.65625 C-86.86208171 307.28720713 -92.26444925 307.64850578 -97.6875 307.8125 C-98.94304687 307.86148437 -100.19859375 307.91046875 -101.4921875 307.9609375 C-104.8125 307.4375 -104.8125 307.4375 -107.3203125 305.5390625 C-111.37627601 297.10860432 -106.23310678 284.64362159 -104.20703125 275.84375 C-103.84165635 274.24532835 -103.47631579 272.64689884 -103.11100769 271.04846191 C-102.34657284 267.71234821 -101.57654107 264.37757855 -100.8034668 261.04345703 C-99.82021707 256.79751353 -98.85904505 252.54689659 -97.90305042 248.2947464 C-97.15730393 244.99575465 -96.39572377 241.7005611 -95.62991905 238.40617371 C-95.26897751 236.84160408 -94.91373972 235.27570598 -94.56464577 233.70845032 C-92.06190742 222.51021456 -89.19317491 211.35210851 -79.1015625 204.60546875 C-73.16972763 201.5788158 -66.535232 200.75959138 -60.05078125 199.546875 C-37.996198 195.64988814 -37.996198 195.64988814 -21 182 C-17.59947173 176.12949343 -16.87190531 169.05232341 -15.8125 162.4375 C-16.82957031 161.94443359 -16.82957031 161.94443359 -17.8671875 161.44140625 C-30.85622274 154.8029658 -40.73962249 145.5266077 -45.75 131.5625 C-46.66406499 128.45802318 -47.12769698 125.69453548 -46.8125 122.4375 C-47.4725 122.4375 -48.1325 122.4375 -48.8125 122.4375 C-49.10125 123.076875 -49.39 123.71625 -49.6875 124.375 C-50.8125 126.4375 -50.8125 126.4375 -52.8125 127.4375 C-55.01953125 127.7109375 -55.01953125 127.7109375 -57.625 127.8125 C-58.47707031 127.86148438 -59.32914063 127.91046875 -60.20703125 127.9609375 C-64.185292 127.1617067 -65.38971315 125.69294808 -67.8125 122.4375 C-68.5103974 118.62516563 -68.39416802 114.87610885 -68.30078125 111.01171875 C-68.29016914 109.35762749 -68.29016914 109.35762749 -68.27934265 107.67012024 C-68.25139489 104.15438483 -68.18865165 100.64025257 -68.125 97.125 C-68.09991781 94.73895532 -68.07710451 92.35288563 -68.05664062 89.96679688 C-68.00156692 84.12315263 -67.91793545 78.28044085 -67.8125 72.4375 C-68.91553467 72.75984619 -70.01856934 73.08219238 -71.1550293 73.41430664 C-79.0433849 75.62110848 -85.41134895 75.07595876 -92.609375 71.046875 C-97.45090078 67.51015759 -99.78924548 62.96093053 -100.875 57.125 C-101.50918217 45.57099356 -93.81119307 36.04599927 -86.5390625 27.88671875 C-80.25276928 21.33223896 -74.78284408 16.9249521 -65.4453125 16.25390625 C-61.56694532 16.52435619 -58.42901452 17.87590805 -54.94140625 19.52734375 C-52.7386369 20.63405233 -52.7386369 20.63405233 -49.8125 20.4375 C-48.0127213 18.97591501 -46.27159057 17.44166635 -44.5625 15.875 C-32.11617824 5.00015427 -16.42512694 -0.16848325 0 0 Z " fill="#FED4C1" transform="translate(215.8125,7.5625)"/>
<path d="M0 0 C1.57648315 0.01244751 1.57648315 0.01244751 3.18481445 0.02514648 C21.30038546 0.41759699 37.18306364 7.74976225 50.1875 20.4375 C63.53470558 35.47155621 68.66015996 52.00968531 68.69140625 71.7734375 C68.70107063 73.22547691 68.71116475 74.67751351 68.72166443 76.12954712 C68.73949061 79.15007309 68.74519837 82.17034322 68.7434082 85.19091797 C68.74310133 89.05487861 68.78432148 92.9172101 68.83572483 96.7807827 C68.86909274 99.76974007 68.87516612 102.75830053 68.87357903 105.74742508 C68.8771081 107.17238695 68.89031632 108.59736029 68.91357613 110.02213669 C69.0773782 121.07455219 69.0773782 121.07455219 66.89001465 124.42474365 C63.12847888 127.68977974 59.97891783 128.07604672 55.24609375 127.8046875 C52.55252121 127.32424003 51.00157516 126.48819366 49.1875 124.4375 C49.1875 123.7775 49.1875 123.1175 49.1875 122.4375 C48.5275 122.4375 47.8675 122.4375 47.1875 122.4375 C47.14625 123.675 47.105 124.9125 47.0625 126.1875 C45.8011784 137.04509269 39.12753138 146.27421082 31.1875 153.4375 C21.68660233 160.4375 21.68660233 160.4375 18.1875 160.4375 C18.78217062 163.14823206 19.38785551 165.85570837 20 168.5625 C20.2484668 169.70332031 20.2484668 169.70332031 20.50195312 170.8671875 C22.51714567 179.68840768 25.77906485 185.16872976 33.1875 190.4375 C42.93303255 196.24949799 54.47944685 198.35317861 65.5546875 200.17578125 C79.65345597 202.49962933 79.65345597 202.49962933 85.1875 207.4375 C86.12142578 208.25154297 86.12142578 208.25154297 87.07421875 209.08203125 C96.05827718 218.02842067 97.36912749 232.80857981 100.1484375 244.7734375 C100.32378651 245.52505787 100.49913551 246.27667824 100.67979813 247.05107498 C101.60365258 251.01311417 102.52176266 254.9764322 103.43505859 258.94091797 C104.37510868 263.01610569 105.33561442 267.08619216 106.30058861 271.15553856 C107.04464614 274.31000129 107.77341261 277.46785564 108.49809647 280.62681961 C108.84562779 282.12957369 109.19887258 283.63101899 109.5580864 285.13102341 C110.05809453 287.22508508 110.53611667 289.32307316 111.00927734 291.42333984 C111.28589203 292.61212738 111.56250671 293.80091492 111.84750366 295.02572632 C112.24737457 299.03832554 111.66643809 301.70055538 110.1875 305.4375 C103.36565332 309.98539779 91.12905528 307.76656194 83.1875 306.4375 C82.5275 306.1075 81.8675 305.7775 81.1875 305.4375 C81.22359375 306.6838623 81.2596875 307.93022461 81.296875 309.21435547 C81.29083052 317.84568195 80.26876796 326.42561579 79.4375 335.0078125 C79.25772881 336.89920228 79.07837344 338.79063162 78.89941406 340.68209839 C78.43008397 345.63077292 77.95515043 350.57889381 77.47900391 355.5269165 C76.99299994 360.5879314 76.51235818 365.64945528 76.03125 370.7109375 C75.08854786 380.62029391 74.13991865 390.52907309 73.1875 400.4375 C69.66686047 401.61104651 68.75905592 401.20260118 65.328125 400.0390625 C64.37679687 399.72453125 63.42546875 399.41 62.4453125 399.0859375 C61.45273437 398.74820312 60.46015625 398.41046875 59.4375 398.0625 C53.35825715 396.00935202 47.59348153 394.06378311 41.1875 393.4375 C40.41085816 384.17566536 42.0310149 378.18262293 46.5 370.125 C47.61667691 368.00761321 48.73121192 365.88909563 49.84375 363.76953125 C50.40835938 362.70943848 50.97296875 361.6493457 51.5546875 360.55712891 C54.00666557 355.87241363 56.25344872 351.09818851 58.5 346.3125 C65.16563515 332.24060357 72.18750544 318.3451034 79.1875 304.4375 C78.51235352 304.44910156 77.83720703 304.46070313 77.14160156 304.47265625 C70.66342528 304.53561666 64.36972642 304.17660676 57.9375 303.4375 C56.24517206 303.24659715 54.55246395 303.05903141 52.859375 302.875 C51.76254395 302.74931641 51.76254395 302.74931641 50.64355469 302.62109375 C47.48818772 302.38522536 44.35063881 302.4266541 41.1875 302.4375 C40.85447876 303.30558289 40.52145752 304.17366577 40.17834473 305.0680542 C37.02997992 313.25999276 33.85494418 321.44096863 30.64975739 329.61085129 C29.00297748 333.81118714 27.36667411 338.01499088 25.75390625 342.22851562 C24.19612819 346.29722688 22.61137321 350.35445371 21.00761414 354.40525055 C20.40152279 355.94996831 19.80513338 357.49853026 19.21882629 359.05086517 C14.03001417 372.75682012 14.03001417 372.75682012 8.88085938 375.16894531 C7.66205078 375.58756836 6.44324219 376.00619141 5.1875 376.4375 C2.85104879 380.06547555 2.5471564 383.98449611 2.0625 388.1875 C1.93294922 389.23357422 1.93294922 389.23357422 1.80078125 390.30078125 C1.58978154 392.01222332 1.38774499 393.72476629 1.1875 395.4375 C0.5275 395.4375 -0.1325 395.4375 -0.8125 395.4375 C-0.97105469 394.61765625 -1.12960938 393.7978125 -1.29296875 392.953125 C-2.6102352 386.2486172 -2.6102352 386.2486172 -6.375 380.75 C-7.84359783 379.95921655 -9.32062385 379.18343807 -10.8125 378.4375 C-11.75149248 376.15946751 -12.57607068 373.91402824 -13.359375 371.58203125 C-13.60740372 370.86450684 -13.85543243 370.14698242 -14.11097717 369.40771484 C-14.65081212 367.84460537 -15.18746244 366.28039334 -15.72134399 364.71524048 C-17.15158117 360.52353458 -18.60483165 356.33984468 -20.05859375 352.15625 C-20.36081345 351.28531204 -20.66303314 350.41437408 -20.97441101 349.51704407 C-24.97552777 338.03247482 -29.23570572 326.64269569 -33.49316406 315.2512207 C-33.78299667 314.47214355 -34.07282928 313.69306641 -34.3714447 312.89038086 C-34.91476185 311.43007897 -35.46080834 309.97078865 -36.01002502 308.51269531 C-37.8125 303.66281642 -37.8125 303.66281642 -37.8125 301.4375 C-38.89966309 301.57381836 -38.89966309 301.57381836 -40.00878906 301.71289062 C-43.35914032 302.12861986 -46.71076246 302.53310558 -50.0625 302.9375 C-51.20203125 303.08058594 -52.3415625 303.22367187 -53.515625 303.37109375 C-60.98814935 304.26270177 -68.28889045 304.62275988 -75.8125 304.4375 C-75.38130859 305.37505127 -74.95011719 306.31260254 -74.50585938 307.27856445 C-66.65140552 324.35834438 -58.80161507 341.44027598 -50.97973633 358.53500366 C-50.28943238 360.04345685 -49.59884371 361.55177977 -48.90795898 363.05996704 C-47.94039715 365.17240448 -46.97395007 367.28534836 -46.0078125 369.3984375 C-45.18821045 371.18967041 -45.18821045 371.18967041 -44.35205078 373.01708984 C-43.84399902 374.1458252 -43.33594727 375.27456055 -42.8125 376.4375 C-42.25763916 377.62432373 -41.70277832 378.81114746 -41.13110352 380.03393555 C-39.85973288 383.31558302 -39.4578073 385.45647792 -39.51953125 388.93359375 C-39.52919922 389.90361328 -39.53886719 390.87363281 -39.54882812 391.87304688 C-39.57396484 392.86369141 -39.59910156 393.85433594 -39.625 394.875 C-39.64530273 396.40157227 -39.64530273 396.40157227 -39.66601562 397.95898438 C-39.7011339 400.45238214 -39.75031441 402.94465512 -39.8125 405.4375 C-41.37366819 405.77701619 -42.93651338 406.10882544 -44.5 406.4375 C-45.37011719 406.623125 -46.24023438 406.80875 -47.13671875 407 C-49.74962964 407.42722047 -52.17063038 407.51366201 -54.8125 407.4375 C-55.05484375 406.76203125 -55.2971875 406.0865625 -55.546875 405.390625 C-57.9081469 398.49946205 -57.9081469 398.49946205 -62.8125 393.4375 C-65.41478191 392.59644249 -68.00591986 391.87360454 -70.66796875 391.24609375 C-71.37566406 390.97925781 -72.08335937 390.71242188 -72.8125 390.4375 C-73.97788775 386.94133676 -74.15672109 383.63061461 -74.36914062 379.984375 C-74.44010201 378.84977844 -74.44010201 378.84977844 -74.51249695 377.69226074 C-74.61466366 376.0505251 -74.71497168 374.40867298 -74.81364441 372.76672363 C-74.96983669 370.16942962 -75.13103853 367.57248989 -75.2935791 364.97558594 C-75.69619413 358.52622714 -76.09008952 352.07634095 -76.48431396 345.62646484 C-76.81779086 340.17591624 -77.15453026 334.7255884 -77.49565125 329.2755127 C-77.6545566 326.71478871 -77.80861973 324.15380213 -77.96252441 321.59277344 C-78.06006501 320.02537581 -78.1578311 318.4579922 -78.25585938 316.890625 C-78.29744675 316.17676636 -78.33903412 315.46290771 -78.38188171 314.72741699 C-78.5722528 311.75360199 -78.8645368 309.28138961 -79.8125 306.4375 C-80.36035156 306.5096875 -80.90820312 306.581875 -81.47265625 306.65625 C-86.86208171 307.28720713 -92.26444925 307.64850578 -97.6875 307.8125 C-98.94304687 307.86148437 -100.19859375 307.91046875 -101.4921875 307.9609375 C-104.8125 307.4375 -104.8125 307.4375 -107.3203125 305.5390625 C-111.37627601 297.10860432 -106.23310678 284.64362159 -104.20703125 275.84375 C-103.84165635 274.24532835 -103.47631579 272.64689884 -103.11100769 271.04846191 C-102.34657284 267.71234821 -101.57654107 264.37757855 -100.8034668 261.04345703 C-99.82021707 256.79751353 -98.85904505 252.54689659 -97.90305042 248.2947464 C-97.15730393 244.99575465 -96.39572377 241.7005611 -95.62991905 238.40617371 C-95.26897751 236.84160408 -94.91373972 235.27570598 -94.56464577 233.70845032 C-92.06190742 222.51021456 -89.19317491 211.35210851 -79.1015625 204.60546875 C-73.16972763 201.5788158 -66.535232 200.75959138 -60.05078125 199.546875 C-37.996198 195.64988814 -37.996198 195.64988814 -21 182 C-17.59947173 176.12949343 -16.87190531 169.05232341 -15.8125 162.4375 C-16.82957031 161.94443359 -16.82957031 161.94443359 -17.8671875 161.44140625 C-30.85622274 154.8029658 -40.73962249 145.5266077 -45.75 131.5625 C-46.66406499 128.45802318 -47.12769698 125.69453548 -46.8125 122.4375 C-47.4725 122.4375 -48.1325 122.4375 -48.8125 122.4375 C-49.10125 123.076875 -49.39 123.71625 -49.6875 124.375 C-50.8125 126.4375 -50.8125 126.4375 -52.8125 127.4375 C-55.01953125 127.7109375 -55.01953125 127.7109375 -57.625 127.8125 C-58.47707031 127.86148438 -59.32914063 127.91046875 -60.20703125 127.9609375 C-64.185292 127.1617067 -65.38971315 125.69294808 -67.8125 122.4375 C-68.5103974 118.62516563 -68.39416802 114.87610885 -68.30078125 111.01171875 C-68.29370651 109.90899124 -68.28663177 108.80626373 -68.27934265 107.67012024 C-68.25139489 104.15438483 -68.18865165 100.64025257 -68.125 97.125 C-68.09991781 94.73895532 -68.07710451 92.35288563 -68.05664062 89.96679688 C-68.00156692 84.12315263 -67.91793545 78.28044085 -67.8125 72.4375 C-68.91553467 72.75984619 -70.01856934 73.08219238 -71.1550293 73.41430664 C-79.0433849 75.62110848 -85.41134895 75.07595876 -92.609375 71.046875 C-97.45090078 67.51015759 -99.78924548 62.96093053 -100.875 57.125 C-101.50918217 45.57099356 -93.81119307 36.04599927 -86.5390625 27.88671875 C-80.25276928 21.33223896 -74.78284408 16.9249521 -65.4453125 16.25390625 C-61.56694532 16.52435619 -58.42901452 17.87590805 -54.94140625 19.52734375 C-52.7386369 20.63405233 -52.7386369 20.63405233 -49.8125 20.4375 C-48.0127213 18.97591501 -46.27159057 17.44166635 -44.5625 15.875 C-32.11617824 5.00015427 -16.42512694 -0.16848325 0 0 Z " fill="#6871D7" transform="translate(215.8125,7.5625)"/>
<path d="M0 0 C1.57648315 0.01244751 1.57648315 0.01244751 3.18481445 0.02514648 C21.30038546 0.41759699 37.18306364 7.74976225 50.1875 20.4375 C63.53470558 35.47155621 68.66015996 52.00968531 68.69140625 71.7734375 C68.70107063 73.22547691 68.71116475 74.67751351 68.72166443 76.12954712 C68.73949061 79.15007309 68.74519837 82.17034322 68.7434082 85.19091797 C68.74310133 89.05487861 68.78432148 92.9172101 68.83572483 96.7807827 C68.86909274 99.76974007 68.87516612 102.75830053 68.87357903 105.74742508 C68.8771081 107.17238695 68.89031632 108.59736029 68.91357613 110.02213669 C69.0773782 121.07455219 69.0773782 121.07455219 66.89001465 124.42474365 C63.12847888 127.68977974 59.97891783 128.07604672 55.24609375 127.8046875 C52.55252121 127.32424003 51.00157516 126.48819366 49.1875 124.4375 C49.1875 123.7775 49.1875 123.1175 49.1875 122.4375 C48.5275 122.4375 47.8675 122.4375 47.1875 122.4375 C47.14625 123.675 47.105 124.9125 47.0625 126.1875 C45.8011784 137.04509269 39.12753138 146.27421082 31.1875 153.4375 C21.68660233 160.4375 21.68660233 160.4375 18.1875 160.4375 C18.78217062 163.14823206 19.38785551 165.85570837 20 168.5625 C20.16564453 169.32304687 20.33128906 170.08359375 20.50195312 170.8671875 C22.53031698 179.74606326 25.88463538 184.99129588 33.1875 190.4375 C35.16529358 191.62001237 37.06137188 192.53389555 39.1875 193.4375 C38.1875 196.4375 38.1875 196.4375 35.78125 197.97265625 C29.5878598 201.03025167 24.00915685 203.30055719 17.1875 204.4375 C17.001875 206.11199219 17.001875 206.11199219 16.8125 207.8203125 C14.51295438 226.03303319 8.47498269 243.28309314 2.1875 260.4375 C-1.11228012 256.32587379 -2.50010612 252.21196742 -4.125 247.25 C-4.4247876 246.3417749 -4.7245752 245.4335498 -5.03344727 244.49780273 C-7.41729231 237.07393575 -9.41157665 229.57590814 -11.25 222 C-11.50885986 220.94079346 -11.76771973 219.88158691 -12.03442383 218.7902832 C-13.1729643 213.9326407 -14.16608104 209.46524988 -13.8125 204.4375 C-15.05 204.23125 -16.2875 204.025 -17.5625 203.8125 C-23.72378229 202.44877669 -29.49806255 199.82804207 -34.8125 196.4375 C-35.1425 195.4475 -35.4725 194.4575 -35.8125 193.4375 C-35.14863281 193.07398438 -34.48476562 192.71046875 -33.80078125 192.3359375 C-26.23505724 188.028445 -21.32217277 184.17922715 -18.4375 175.73828125 C-17.24945325 171.36478417 -16.51156364 166.91150731 -15.8125 162.4375 C-16.82957031 161.94443359 -16.82957031 161.94443359 -17.8671875 161.44140625 C-30.85622274 154.8029658 -40.73962249 145.5266077 -45.75 131.5625 C-46.66406499 128.45802318 -47.12769698 125.69453548 -46.8125 122.4375 C-47.4725 122.4375 -48.1325 122.4375 -48.8125 122.4375 C-49.10125 123.076875 -49.39 123.71625 -49.6875 124.375 C-50.8125 126.4375 -50.8125 126.4375 -52.8125 127.4375 C-55.01953125 127.7109375 -55.01953125 127.7109375 -57.625 127.8125 C-58.47707031 127.86148438 -59.32914063 127.91046875 -60.20703125 127.9609375 C-64.185292 127.1617067 -65.38971315 125.69294808 -67.8125 122.4375 C-68.5103974 118.62516563 -68.39416802 114.87610885 -68.30078125 111.01171875 C-68.29370651 109.90899124 -68.28663177 108.80626373 -68.27934265 107.67012024 C-68.25139489 104.15438483 -68.18865165 100.64025257 -68.125 97.125 C-68.09991781 94.73895532 -68.07710451 92.35288563 -68.05664062 89.96679688 C-68.00156692 84.12315263 -67.91793545 78.28044085 -67.8125 72.4375 C-68.91553467 72.75984619 -70.01856934 73.08219238 -71.1550293 73.41430664 C-79.0433849 75.62110848 -85.41134895 75.07595876 -92.609375 71.046875 C-97.45090078 67.51015759 -99.78924548 62.96093053 -100.875 57.125 C-101.50918217 45.57099356 -93.81119307 36.04599927 -86.5390625 27.88671875 C-80.25276928 21.33223896 -74.78284408 16.9249521 -65.4453125 16.25390625 C-61.56694532 16.52435619 -58.42901452 17.87590805 -54.94140625 19.52734375 C-52.7386369 20.63405233 -52.7386369 20.63405233 -49.8125 20.4375 C-48.0127213 18.97591501 -46.27159057 17.44166635 -44.5625 15.875 C-32.11617824 5.00015427 -16.42512694 -0.16848325 0 0 Z " fill="#FDD3C1" transform="translate(215.8125,7.5625)"/>
<path d="M0 0 C1.3935008 -0.01129591 2.78697307 -0.02736965 4.18035507 -0.04878616 C13.23391256 -0.17753178 22.15893932 -0.19685899 29.60967064 5.51008415 C44.8398575 25.81699996 39.13814869 68.24586453 36.30498314 91.9983654 C35.54674662 97.10476071 34.59564574 102.1809711 33.67217064 107.26008415 C-16.48782936 107.26008415 -66.64782936 107.26008415 -118.32782936 107.26008415 C-118.38970436 92.20383415 -118.45157936 77.14758415 -118.51532936 61.63508415 C-118.54264137 56.8866613 -118.56995338 52.13823845 -118.59809303 47.245924 C-118.61164284 41.43317986 -118.61164284 41.43317986 -118.61416054 38.70921135 C-118.61875761 36.81278686 -118.62928885 34.91637097 -118.64455605 33.02000237 C-118.66656124 30.14203036 -118.66954586 27.26459271 -118.66840553 24.386549 C-118.67919986 23.5462483 -118.68999418 22.70594761 -118.70111561 21.84018326 C-118.66894687 15.76258795 -117.39667662 11.65218879 -113.32782936 6.94758415 C-105.57284691 0.40431771 -88.70766418 2.88214946 -78.81611061 2.5061779 C-77.11869546 2.44039861 -75.42128238 2.3745659 -73.72387123 2.3086834 C-70.16785784 2.17143643 -66.61176503 2.03649854 -63.05561256 1.90290642 C-59.48284715 1.76836411 -55.91028357 1.62969942 -52.33783913 1.48689079 C-34.89868801 0.79076498 -17.45422051 0.12699647 0 0 Z " fill="#FE9700" transform="translate(126.32782936096191,396.7399158477783)"/>
<path d="M0 0 C4.68967953 4.28961208 6.54162468 9.78276381 7 16 C7.14164702 28.35041463 5.66503262 38.92312057 0 50 C0.67804688 50.51046875 1.35609375 51.0209375 2.0546875 51.546875 C25.63332861 69.96564728 40.07819756 99.89004446 43.75244141 129.34472656 C44.25585406 134.74424922 44.37526409 140.14228353 44.4375 145.5625 C44.45973633 146.66875732 44.48197266 147.77501465 44.50488281 148.91479492 C44.4862694 155.72161815 43.72613313 160.24511925 40 166 C36.65802826 167.88894055 35.01294664 168.24194121 31.28515625 167.3515625 C27.17307739 165.65979165 23.89020274 163.36155077 20.3125 160.75 C19.58571045 160.22784912 18.8589209 159.70569824 18.11010742 159.16772461 C15.73312903 157.45451194 13.36584013 155.72855612 11 154 C10.15953125 153.38850098 9.3190625 152.77700195 8.453125 152.14697266 C5.90297835 150.28990564 3.35660715 148.42783112 0.8125 146.5625 C0.02335205 145.9840332 -0.7657959 145.40556641 -1.57885742 144.80957031 C-14.26783958 135.44217587 -19.94598748 127.37458544 -24.60546875 112.3046875 C-27.40523444 103.40325137 -27.40523444 103.40325137 -34 97 C-37.46996232 95.26501884 -41.21507195 95.39205819 -45 96 C-48.02409364 98.27127334 -48.02409364 98.27127334 -50 101 C-51.75377427 102.75377427 -54.07718819 102.16838616 -56.42016602 102.23852539 C-77.97762875 102.9418646 -96.96773132 111.57854637 -112 127 C-110.75986692 122.92734508 -109.27727701 119.48356763 -107.05078125 115.859375 C-106.16084473 114.39673218 -106.16084473 114.39673218 -105.25292969 112.90454102 C-104.29241699 111.34304321 -104.29241699 111.34304321 -103.3125 109.75 C-101.94724409 107.50507059 -100.58351769 105.25930568 -99.22265625 103.01171875 C-98.87331024 102.43554306 -98.52396423 101.85936737 -98.16403198 101.26573181 C-94.42852747 95.08742698 -90.83789331 88.82742109 -87.25 82.5625 C-85.40778173 79.36387349 -83.56294305 76.16678191 -81.71630859 72.97070312 C-80.61040427 71.05652905 -79.50641367 69.14124742 -78.40478516 67.22460938 C-66.36745441 46.38014011 -66.36745441 46.38014011 -54 42 C-54.27714844 41.5153125 -54.55429687 41.030625 -54.83984375 40.53125 C-58.66533607 33.45204713 -59.96958914 27.26004711 -57.91015625 19.36328125 C-54.68002898 10.97604092 -48.94689751 5.01117137 -41 1 C-28.54058296 -4.32263558 -12.17070625 -7.94150331 0 0 Z " fill="#212647" transform="translate(453,286)"/>
<path d="M0 0 C1.57648315 0.01244751 1.57648315 0.01244751 3.18481445 0.02514648 C21.30038546 0.41759699 37.18306364 7.74976225 50.1875 20.4375 C56.8190485 27.90715889 61.73154697 36.06453649 65.1875 45.4375 C65.45892822 46.13254639 65.73035645 46.82759277 66.01000977 47.54370117 C69.2794536 57.28277704 68.51350648 67.48963572 68.375 77.625 C68.35992581 79.55011974 68.34624225 81.47525089 68.33398438 83.40039062 C68.30119566 88.07971284 68.24956443 92.75847826 68.1875 97.4375 C66.69417318 96.15588888 65.20084635 94.87427775 63.70751953 93.59266663 C61.81417917 92.15378801 60.56047904 91.79095699 58.1875 91.875 C57.56875 91.87371094 56.95 91.87242188 56.3125 91.87109375 C53.15149116 92.71364206 50.82565024 94.55257163 48.1875 96.4375 C48.17332031 95.26832031 48.15914062 94.09914063 48.14453125 92.89453125 C48.09761562 91.34631543 48.04936831 89.79813956 48 88.25 C47.99419922 87.48107422 47.98839844 86.71214844 47.98242188 85.91992188 C47.8236596 81.80974308 47.48776151 79.85972566 45.04296875 76.421875 C41.62743419 74.04828874 39.81204652 73.87027002 35.6875 73.875 C15.8650122 73.08872178 0.99497267 62.53869049 -13.515625 50.125 C-15.7882477 48.16197141 -15.7882477 48.16197141 -19.125 48.0625 C-23.97220023 49.8699306 -25.68440092 52.57865066 -28.703125 56.66796875 C-32.90054144 62.17902107 -37.95645827 66.99278404 -43.3125 71.375 C-45.85840598 73.19153019 -45.85840598 73.19153019 -46.8125 75.4375 C-46.96425549 77.03012066 -47.06150325 78.62814856 -47.12890625 80.2265625 C-47.19174805 81.63808594 -47.19174805 81.63808594 -47.25585938 83.078125 C-47.29517578 84.06296875 -47.33449219 85.0478125 -47.375 86.0625 C-47.41818359 87.05507812 -47.46136719 88.04765625 -47.50585938 89.0703125 C-47.61211069 91.52589838 -47.71414964 93.98158703 -47.8125 96.4375 C-48.72 95.78910156 -49.6275 95.14070313 -50.5625 94.47265625 C-53.9978159 92.28239125 -53.9978159 92.28239125 -57.8125 91.875 C-58.740625 91.84212891 -58.740625 91.84212891 -59.6875 91.80859375 C-62.77694718 92.57045622 -62.77694718 92.57045622 -67.8125 97.4375 C-67.8125 89.1875 -67.8125 80.9375 -67.8125 72.4375 C-71.2775 73.4275 -71.2775 73.4275 -74.8125 74.4375 C-82.38998678 75.55356394 -88.61563206 73.96429006 -94.8125 69.4375 C-98.72989042 65.30447341 -100.68856095 60.52168637 -101 54.84765625 C-99.94999535 41.35072154 -89.54900345 29.95251483 -79.8125 21.4375 C-74.77248863 17.42991387 -69.18512604 15.99311807 -62.8125 16.4375 C-60.05837147 17.27622186 -57.54193218 18.29595507 -54.94140625 19.52734375 C-52.7386369 20.63405233 -52.7386369 20.63405233 -49.8125 20.4375 C-48.0127213 18.97591501 -46.27159057 17.44166635 -44.5625 15.875 C-32.11617824 5.00015427 -16.42512694 -0.16848325 0 0 Z " fill="#212647" transform="translate(215.8125,7.5625)"/>
<path d="M0 0 C2.25677029 -0.00015516 4.51354084 -0.00164693 6.77030945 -0.00440979 C11.48151543 -0.00578907 16.19241521 0.00669052 20.90356445 0.02954102 C26.93717159 0.05800576 32.97027364 0.05515974 39.00391865 0.0424509 C43.6562277 0.03549439 48.30842018 0.04328142 52.96071434 0.05570793 C55.18582907 0.06021691 57.41095632 0.06056408 59.63607216 0.05664253 C62.74242449 0.05372856 65.84808134 0.07024396 68.9543457 0.09204102 C69.86926788 0.08753937 70.78419006 0.08303772 71.72683716 0.07839966 C77.71136245 0.14808562 82.15834236 0.98670486 86.6875 5.25 C87.16574219 5.84683594 87.64398438 6.44367188 88.13671875 7.05859375 C88.62785156 7.65800781 89.11898437 8.25742187 89.625 8.875 C97.49154716 19.50893183 91.82421875 35.26873308 91.82421875 48.49609375 C44.30421875 48.49609375 -3.21578125 48.49609375 -52.17578125 48.49609375 C-52.17578125 24.95572108 -52.17578125 24.95572108 -48.17578125 18.49609375 C-47.52222656 17.42875 -47.52222656 17.42875 -46.85546875 16.33984375 C-35.44962025 -0.36380324 -18.3497411 -0.10280172 0 0 Z " fill="#6871D8" transform="translate(412.17578125,455.50390625)"/>
<path d="M0 0 C17.96792315 -0.09039765 35.93565134 -0.16403849 53.90373898 -0.20724869 C62.24718827 -0.22784785 70.59048594 -0.25591761 78.93383789 -0.30175781 C86.20843392 -0.34170689 93.4829201 -0.36745204 100.75762278 -0.37635398 C104.60728565 -0.38155514 108.45663433 -0.39372391 112.30619621 -0.42292023 C115.93499039 -0.4502173 119.56334312 -0.45841649 123.19223022 -0.45243073 C125.14791008 -0.45404335 127.10354266 -0.47549103 129.05909729 -0.49768066 C137.15059228 -0.46003715 144.03864209 0.37052056 150.19140625 6.0078125 C153.83867538 11.63977793 155.41443793 16.3057136 154 23 C151.56151675 29.36900649 147.15319337 33.25341887 141 36 C134.35468238 38.46916918 127.93303803 38.26821176 120.90454102 38.22705078 C118.94254005 38.22748886 118.94254005 38.22748886 116.94090271 38.22793579 C113.3711275 38.22850743 109.80148787 38.21678389 106.23174405 38.20278788 C102.49483005 38.19024889 98.75791263 38.18910753 95.02098083 38.18673706 C87.95215705 38.18053158 80.88339544 38.16413343 73.81459898 38.14403808 C65.76381261 38.12165002 57.71302321 38.11067835 49.66221344 38.10064721 C33.1081002 38.07976633 16.55407257 38.04310179 0 38 C0 25.46 0 12.92 0 0 Z " fill="#FED4C1" transform="translate(164,434)"/>
<path d="M0 0 C54.45 0 108.9 0 165 0 C165 10.56 165 21.12 165 32 C109.56 32 54.12 32 -3 32 C-2.0300508 21.33055876 -1.01573144 10.66518014 0 0 Z " fill="#6871D7" transform="translate(163,472)"/>
<path d="M0 0 C0.27972656 1.2065625 0.55945313 2.413125 0.84765625 3.65625 C3.3182416 13.73745877 5.29664011 21.69146087 14.44921875 27.57421875 C16.6010997 28.80724316 18.75773569 29.94242409 21 31 C20 34 20 34 17.59375 35.53515625 C11.4003598 38.59275167 5.82165685 40.86305719 -1 42 C-1.185625 43.67449219 -1.185625 43.67449219 -1.375 45.3828125 C-3.67454562 63.59553319 -9.71251731 80.84559314 -16 98 C-19.29978012 93.88837379 -20.68760612 89.77446742 -22.3125 84.8125 C-22.6122876 83.9042749 -22.9120752 82.9960498 -23.22094727 82.06030273 C-25.60479231 74.63643575 -27.59907665 67.13840814 -29.4375 59.5625 C-29.69635986 58.50329346 -29.95521973 57.44408691 -30.22192383 56.3527832 C-31.3604643 51.4951407 -32.35358104 47.02774988 -32 42 C-33.2375 41.79375 -34.475 41.5875 -35.75 41.375 C-41.91128229 40.01127669 -47.68556255 37.39054207 -53 34 C-53.495 32.515 -53.495 32.515 -54 31 C-53.33613281 30.63648438 -52.67226562 30.27296875 -51.98828125 29.8984375 C-43.51613168 25.07487789 -38.67109366 20.54915984 -36 11 C-35.24137243 7.68100439 -34.58417899 4.35387468 -34 1 C-33.21625 1.16113281 -32.4325 1.32226562 -31.625 1.48828125 C-27.06103484 2.13254788 -22.60301012 2.18411543 -18 2.1875 C-17.1234375 2.19974609 -16.246875 2.21199219 -15.34375 2.22460938 C-9.96902627 2.23675107 -5.08336657 0 0 0 Z " fill="#FED4C2" transform="translate(234,170)"/>
<path d="M0 0 C17.96787042 -0.09356473 35.93567735 -0.16403855 53.90373898 -0.20724869 C62.24718827 -0.22784785 70.59048594 -0.25591761 78.93383789 -0.30175781 C86.20843392 -0.34170689 93.4829201 -0.36745204 100.75762278 -0.37635398 C104.60728565 -0.38155514 108.45663433 -0.39372391 112.30619621 -0.42292023 C115.93499039 -0.4502173 119.56334312 -0.45841649 123.19223022 -0.45243073 C125.14791008 -0.45404335 127.10354266 -0.47549103 129.05909729 -0.49768066 C136.91349792 -0.46114016 143.95100861 0.15503384 149.87390041 5.77947617 C154.44683766 10.81135747 156.42186447 14.87230268 156.25390625 21.69140625 C155.52436553 28.32461493 151.92345242 33.59245095 146.875 37.75 C142.69570689 39.56708396 138.51586348 39.74570866 134 40 C134.33 39.34 134.66 38.68 135 38 C136.95655141 37.53573356 138.91325642 37.07209465 140.87109375 36.61328125 C145.65735928 35.23448549 148.4064663 32.78096539 151.375 28.875 C153.66743642 24.35783626 153.86634595 19.94281303 153 15 C151.29797277 10.22941406 148.76395392 7.01311849 144.16993713 4.80755615 C137.98201904 2.23648815 131.83052933 2.42785806 125.21850586 2.45410156 C123.84772578 2.44535186 122.47695589 2.43486124 121.10620117 2.42277527 C117.4104887 2.395065 113.71511195 2.39150723 110.01931071 2.39249516 C106.14752853 2.38935307 102.2758947 2.36370807 98.40419006 2.34051514 C91.08401125 2.30005036 83.7639213 2.27963692 76.44364792 2.26654124 C68.10494528 2.25063881 59.76639318 2.21220964 51.42777812 2.17194796 C34.28523042 2.08967945 17.14270706 2.03550598 0 2 C0 1.34 0 0.68 0 0 Z " fill="#FCAE96" transform="translate(164,432)"/>
<path d="M0 0 C2.00854349 0.27724389 4.00785644 0.62254122 6 1 C8.4778507 1.09088126 10.95798841 1.13007577 13.4375 1.125 C15.32275391 1.12886719 15.32275391 1.12886719 17.24609375 1.1328125 C21.03174143 1.07861976 21.03174143 1.07861976 24.84765625 0.3671875 C25.88792969 0.24601563 26.92820313 0.12484375 28 0 C30 2 30 2 30.0625 4.4375 C29 7 29 7 25.96875 8.63671875 C21.77691878 10.30092553 17.90379123 10.44646066 13.4375 10.375 C12.70853516 10.38660156 11.97957031 10.39820313 11.22851562 10.41015625 C6.46055038 10.38440666 3.1095335 9.65315029 -1 7 C-2 4.4375 -2 4.4375 -2 2 C-1.34 1.34 -0.68 0.68 0 0 Z " fill="#FCAE96" transform="translate(202,136)"/>
<path d="M0 0 C1.63671875 0.9609375 1.63671875 0.9609375 3.82421875 3.2734375 C4.26171875 5.9609375 4.26171875 5.9609375 3.82421875 8.2734375 C3.49421875 8.6034375 3.16421875 8.9334375 2.82421875 9.2734375 C0.93621099 9.03743653 -0.95141761 8.79755775 -2.8359375 8.53515625 C-6.59660997 8.11451342 -10.39946798 7.9924864 -14.17578125 8.2734375 C-14.50578125 8.6034375 -14.83578125 8.9334375 -15.17578125 9.2734375 C-17.61328125 9.4609375 -17.61328125 9.4609375 -20.17578125 9.2734375 C-20.83578125 8.6134375 -21.49578125 7.9534375 -22.17578125 7.2734375 C-22.17578125 4.8359375 -22.17578125 4.8359375 -21.17578125 2.2734375 C-15.69200762 -2.14404681 -6.52339391 -2.17836852 0 0 Z " fill="#2A2D4C" transform="translate(246.17578125,95.7265625)"/>
<path d="M0 0 C2.875 1.8125 2.875 1.8125 3.9375 4.375 C3.875 6.8125 3.875 6.8125 1.875 8.8125 C-0.46454855 8.52602467 -2.79712073 8.18200465 -5.125 7.8125 C-9.51563029 7.59567875 -13.78030993 7.68946489 -18.125 8.375 C-19.61 8.5915625 -19.61 8.5915625 -21.125 8.8125 C-22.125 7.8125 -22.125 7.8125 -22.1875 5.25 C-22.166875 4.445625 -22.14625 3.64125 -22.125 2.8125 C-15.29363533 -2.04535932 -7.98467426 -2.85871054 0 0 Z " fill="#282B4A" transform="translate(204.125,96.1875)"/>
<path d="M0 0 C0 0.66 0 1.32 0 2 C-0.59498291 2.02916504 -1.18996582 2.05833008 -1.80297852 2.08837891 C-19.00895386 3.01137976 -35.55295529 5.76323225 -52.38330078 9.25390625 C-57.64293194 10.33892264 -62.91332524 11.3634759 -68.1875 12.375 C-69.03602539 12.54241699 -69.88455078 12.70983398 -70.75878906 12.88232422 C-74.25986412 13.55908217 -77.41972646 14 -81 14 C-81 13.01 -81 12.02 -81 11 C-79.92331055 10.80889648 -78.84662109 10.61779297 -77.73730469 10.42089844 C-73.64957708 9.6947725 -69.56238793 8.96565048 -65.47531128 8.23587036 C-63.65948729 7.91214402 -61.84350805 7.5892873 -60.02737427 7.26730347 C-51.05621441 5.67655666 -42.10533082 4.08593363 -33.21679688 2.07617188 C-22.14665426 -0.41864176 -11.30868388 -0.42172372 0 0 Z " fill="#F8B29F" transform="translate(257,399)"/>
<path d="M0 0 C4.34291954 2.21243071 7.36335063 4.88682698 10 9 C9.67 9.99 9.34 10.98 9 12 C8.51789063 11.43410156 8.03578125 10.86820312 7.5390625 10.28515625 C6.90742188 9.55167969 6.27578125 8.81820313 5.625 8.0625 C4.99851562 7.33160156 4.37203125 6.60070312 3.7265625 5.84765625 C0.81616952 2.73314069 -1.66437694 2.78288912 -5.83203125 2.4765625 C-9.3455102 3.32486192 -10.78583066 5.2146714 -13 8 C-14.05791731 11.51066125 -14.05791731 11.51066125 -14.5 15.3125 C-15.47389397 21.18444473 -16.49323841 26.76865162 -21 31 C-24.3125 32 -24.3125 32 -27 32 C-26 30 -26 30 -23.5625 28.6875 C-20.42920503 26.62411063 -20.13742989 25.52796051 -19 22 C-18.53032257 19.52672753 -18.09528356 17.04672748 -17.6875 14.5625 C-16.64123873 8.76642251 -15.51393123 4.9352221 -11 1 C-7.52629893 -0.73685053 -3.79809188 -0.46115112 0 0 Z " fill="#FCB39C" transform="translate(417,381)"/>
<path d="M0 0 C0.99 0.33 1.98 0.66 3 1 C4.00295731 6.03422075 4.99968311 11.0696207 5.99072266 16.10620117 C6.32854107 17.81845148 6.66804245 19.53037065 7.00927734 21.24194336 C7.50023006 23.70601069 7.98506421 26.17121601 8.46875 28.63671875 C8.62186646 29.39836838 8.77498291 30.16001801 8.93273926 30.94474792 C9.65911584 34.67844154 10.18427484 38.19275018 10 42 C7.36 42.33 4.72 42.66 2 43 C2 42.34 2 41.68 2 41 C4.97 40.505 4.97 40.505 8 40 C7.8146167 39.28529541 7.6292334 38.57059082 7.43823242 37.83422852 C5.50032983 30.24170427 3.83317924 22.62359177 2.3125 14.9375 C2.08755859 13.82439453 1.86261719 12.71128906 1.63085938 11.56445312 C1.41880859 10.50033203 1.20675781 9.43621094 0.98828125 8.33984375 C0.79790283 7.38456787 0.60752441 6.42929199 0.41137695 5.44506836 C0 3 0 3 0 0 Z " fill="#2C325F" transform="translate(176,267)"/>
<path d="M0 0 C0.66 0 1.32 0 2 0 C1.25235934 8.47010616 -0.41306127 16.73354745 -2.0625 25.0625 C-2.34733999 26.51490834 -2.63184788 27.96738186 -2.91601562 29.41992188 C-3.60685021 32.94737411 -4.3021738 36.47392339 -5 40 C-3.02 40 -1.04 40 1 40 C1 40.66 1 41.32 1 42 C-1.64 42 -4.28 42 -7 42 C-7.15548186 36.33601793 -6.67301585 31.30579188 -5.46875 25.78125 C-5.23569153 24.66623108 -5.23569153 24.66623108 -4.9979248 23.52868652 C-4.50609703 21.18413868 -4.00326089 18.8421173 -3.5 16.5 C-3.16202586 14.89859235 -2.82477947 13.29703093 -2.48828125 11.6953125 C-1.66724896 7.7950484 -0.83634421 3.89700814 0 0 Z " fill="#2B315D" transform="translate(256,267)"/>
<path d="M0 0 C0 0.66 0 1.32 0 2 C-6.26095464 4.75278632 -11.32246583 5.43998377 -18.125 5.3125 C-18.99253906 5.31572266 -19.86007813 5.31894531 -20.75390625 5.32226562 C-25.55686743 5.28205819 -29.49281494 4.85459582 -34 3 C-33.67 2.34 -33.34 1.68 -33 1 C-31.515 1.24169922 -31.515 1.24169922 -30 1.48828125 C-26.00273639 2.05630286 -22.03320937 2.18363677 -18 2.1875 C-17.32710937 2.19974609 -16.65421875 2.21199219 -15.9609375 2.22460938 C-10.37454434 2.24078619 -5.44804825 0 0 0 Z " fill="#FCB39C" transform="translate(234,168)"/>
<path d="M0 0 C4.34291954 2.21243071 7.36335063 4.88682698 10 9 C9.67 9.99 9.34 10.98 9 12 C8.51789063 11.43410156 8.03578125 10.86820312 7.5390625 10.28515625 C6.90742188 9.55167969 6.27578125 8.81820313 5.625 8.0625 C4.99851562 7.33160156 4.37203125 6.60070312 3.7265625 5.84765625 C1.114229 3.05210479 0.13852882 3.01135482 -3.8125 2.6875 C-7.99077962 2.71033213 -10.0177137 4.0177137 -13 7 C-13.66 6.67 -14.32 6.34 -15 6 C-10.40661459 0.02859896 -7.42215214 -0.90117193 0 0 Z " fill="#EDA692" transform="translate(417,381)"/>
<path d="M0 0 C-0.33 0.99 -0.66 1.98 -1 3 C-3.31 3.33 -5.62 3.66 -8 4 C-8.33 3.34 -8.66 2.68 -9 2 C-2.25 0 -2.25 0 0 0 Z " fill="#ECAFA5" transform="translate(217,403)"/>
</svg>
